<svg width="403" height="371" viewBox="0 0 403 371" fill="none" xmlns="http://www.w3.org/2000/svg">
<g clip-path="url(#clip0_854_2)">
<path d="M353.89 176.09C349.597 174.577 349.363 175.057 353.19 177.53C356.67 179.78 360.89 181.66 363.9 184.36C368.587 188.573 370.6 194.233 369.94 201.34C369.54 205.7 369.087 210.307 368.58 215.16C368.567 215.296 368.516 215.426 368.433 215.535C368.35 215.644 368.237 215.727 368.109 215.775C367.981 215.823 367.841 215.834 367.707 215.806C367.573 215.779 367.449 215.714 367.35 215.62C365.497 213.84 363.65 212.02 361.81 210.16C360.71 209.06 358.56 208.41 356.93 208.13C352.15 207.31 347.987 205.273 344.44 202.02C343.88 201.507 343.69 201.62 343.87 202.36C344.423 204.66 344.86 207.07 345.18 209.59C345.38 211.2 346.49 212.3 346.7 213.93C347.75 221.96 350.73 226.68 355.61 232.57C361.66 239.86 364.58 248.66 366.02 257.85C366.42 260.363 366.48 263.793 366.2 268.14C366.173 268.587 365.94 268.78 365.5 268.72L365.11 268.67C364.935 268.646 364.776 268.559 364.661 268.426C364.547 268.293 364.486 268.124 364.49 267.95C364.53 263.71 363.553 259.917 361.56 256.57C358.72 251.79 355.07 247.44 352.58 242.55C350.06 237.577 348.243 231.63 347.13 224.71C346.803 222.69 346.52 222.693 346.28 224.72C345.96 227.46 346.37 230.2 346.34 232.9C346.29 238.73 346.41 244.65 345.64 250.56C345.067 254.907 344.807 258.71 344.86 261.97C344.9 264.417 346 267.567 348.16 271.42C352.327 278.867 355.327 287.273 357.16 296.64C358.53 303.59 357.53 310.22 356.88 317.29C356.793 318.243 356.39 318.993 355.67 319.54C355.48 319.683 355.259 319.78 355.024 319.821C354.79 319.863 354.548 319.849 354.32 319.78C354.091 319.711 353.881 319.589 353.708 319.424C353.534 319.259 353.401 319.055 353.32 318.83C351.62 314.1 353.31 308.66 352.28 303.59C351.327 298.863 350.037 294.25 348.41 289.75C346.96 285.74 346.96 280.67 346.9 276.45C346.83 272.35 345.14 268.7 343.58 265.02C343.367 264.52 343.193 264.533 343.06 265.06C341.82 269.927 340.26 275.037 338.38 280.39C335.85 287.57 332.5 293.95 329.6 300.79C328.05 304.47 327.43 308.84 328.81 312.73C332.44 322.95 333.05 333.06 332.58 343.92C332.42 347.51 331.56 350.94 331.11 354.47C331.037 355.057 330.7 355.323 330.1 355.27L329.74 355.23C329.677 355.224 329.616 355.205 329.561 355.175C329.505 355.145 329.457 355.104 329.418 355.054C329.378 355.005 329.35 354.948 329.333 354.887C329.316 354.826 329.312 354.763 329.32 354.7C329.69 351.82 328.52 350.48 327.79 348.01C324.763 337.777 323.843 327.993 325.03 318.66C325.43 315.44 325.31 312.14 325.63 308.94C325.75 307.72 325.453 307.607 324.74 308.6C321.94 312.527 319.34 316.367 316.94 320.12C315.44 322.453 314.13 324.857 313.01 327.33C311.46 330.75 307.09 337.46 302.74 338.45C299.34 339.23 295.85 339.69 293.14 342.13C290.067 344.883 286.213 347.613 281.58 350.32C280.72 350.82 279.773 351.13 278.74 351.25C278.607 351.265 278.472 351.243 278.35 351.187C278.229 351.13 278.125 351.041 278.051 350.93C277.976 350.818 277.934 350.688 277.929 350.554C277.923 350.42 277.955 350.287 278.02 350.17C282.1 342.96 287.94 336.71 296.44 335.37C298.29 335.08 299.56 334.04 300.84 332.52C304.32 328.387 308.163 324.823 312.37 321.83C314.16 320.56 315.93 318.67 317.29 316.94C322.33 310.55 327.46 302.32 331.09 294.26C332.263 291.647 331.913 291.423 330.04 293.59C326.7 297.45 323.59 299.82 318.81 301.47C315.04 302.78 311.79 304.98 308.6 307.32C304.29 310.49 299.44 311.42 294.03 310.93C293.27 310.857 292.597 310.647 292.01 310.3C291.883 310.226 291.783 310.114 291.723 309.98C291.663 309.846 291.647 309.697 291.677 309.553C291.707 309.409 291.781 309.278 291.889 309.179C291.998 309.08 292.134 309.017 292.28 309C296.69 308.48 299.22 306.59 301.65 303.09C302.85 301.357 304.31 299.803 306.03 298.43C309 296.07 312.47 295.39 315.92 294.14C322.547 291.72 328.327 288.523 333.26 284.55C334.83 283.29 336.19 281.75 336.97 279.73C341.057 269.097 343.673 258.11 344.82 246.77C344.867 246.263 344.827 245.907 344.7 245.7C344.656 245.623 344.592 245.559 344.514 245.516C344.437 245.472 344.349 245.451 344.259 245.453C344.17 245.455 344.082 245.48 344.005 245.527C343.927 245.574 343.864 245.641 343.82 245.72C340.28 252.23 338.49 259.29 334.97 265.68C332.79 269.64 330.603 273.697 328.41 277.85C325.763 282.89 321.86 285.62 316.7 286.04C316.227 286.08 315.77 285.967 315.33 285.7C315.083 285.553 314.953 285.34 314.94 285.06C314.931 284.889 314.972 284.719 315.057 284.569C315.141 284.418 315.267 284.294 315.42 284.21C321.83 280.75 325.05 275.1 326.45 268.17C327.21 264.42 329.04 258.69 331.22 256.24C335.03 251.97 338.69 246.43 343.78 243.69C344.131 243.499 344.425 243.218 344.631 242.877C344.837 242.536 344.947 242.147 344.95 241.75C345.037 231.603 344.797 222.643 344.23 214.87C344.003 211.81 343.567 208.493 342.92 204.92C342.9 204.8 342.83 204.743 342.71 204.75L342.42 204.78C342.324 204.787 342.233 204.83 342.167 204.901C342.1 204.971 342.062 205.063 342.06 205.16C341.95 208.77 342.23 212.27 341.45 215.84C340.117 221.96 339.217 228.01 338.75 233.99C338.01 243.41 330.33 252.23 321.72 254.74C321.3 254.86 320.887 254.867 320.48 254.76C320.349 254.726 320.229 254.661 320.129 254.57C320.029 254.478 319.954 254.364 319.908 254.236C319.863 254.107 319.849 253.97 319.869 253.835C319.888 253.7 319.94 253.571 320.02 253.46C323.64 248.507 326.747 243.593 329.34 238.72C331.65 234.37 331.85 229.05 331.87 224.19C331.91 215.94 335.36 208.52 341.6 203.03C341.905 202.76 342.123 202.407 342.226 202.015C342.329 201.623 342.313 201.211 342.18 200.83C341.567 199.043 340.647 197.263 339.42 195.49C339.107 195.037 338.867 195.073 338.7 195.6C336.71 201.87 333.36 207.38 328.48 211.78C326.39 213.66 324.76 215.25 323.93 218.07C323.037 221.137 321.91 223.893 320.55 226.34C320.343 226.727 320.337 227.113 320.53 227.5C322.437 231.313 323.007 235.623 322.24 240.43C321.09 247.66 318.19 254.58 314.97 261.34C314.05 263.27 313.67 265.55 313.25 267.67C313.217 267.85 313.13 268 312.99 268.12C312.863 268.24 312.717 268.277 312.55 268.23C312.407 268.193 312.279 268.109 312.187 267.992C312.095 267.875 312.044 267.73 312.04 267.58C312.007 266.527 311.963 265.457 311.91 264.37C311.77 261.9 310.67 259.22 311.03 256.75C311.51 253.417 312.003 250.083 312.51 246.75C312.82 244.73 312.22 242.7 311.37 240.88C308.077 233.867 308.557 227.493 312.81 221.76C313.11 221.353 313.237 220.897 313.19 220.39L312.48 213.02C312.427 212.46 312.287 212.437 312.06 212.95C305.44 227.877 297.003 241.74 286.75 254.54C286.01 255.47 285.39 256.4 285.24 257.61C284.86 260.54 283.7 263.37 282.63 266.12C280.917 270.507 278.043 273.68 274.01 275.64C270.237 277.48 266.59 279.523 263.07 281.77C261.71 282.637 259.993 282.967 257.92 282.76C254.927 282.46 252.02 282.513 249.2 282.92C248.98 282.947 248.777 282.9 248.59 282.78C248.517 282.733 248.46 282.673 248.42 282.6C248.389 282.536 248.371 282.466 248.369 282.395C248.366 282.324 248.378 282.254 248.405 282.188C248.431 282.123 248.471 282.064 248.522 282.016C248.573 281.968 248.634 281.932 248.7 281.91C252.95 280.39 256.81 278.55 260.54 275.69C262.113 274.49 263.677 273.33 265.23 272.21C265.514 272.002 265.751 271.738 265.926 271.435C266.102 271.132 266.212 270.797 266.25 270.45C266.64 267.11 268.66 264.76 271.18 262.39C274.38 259.37 277.32 256.49 282.09 256.42C283.043 256.413 283.837 256.017 284.47 255.23C292.257 245.583 298.83 235.81 304.19 225.91C305.243 223.957 304.877 223.64 303.09 224.96C299.61 227.54 296.06 229.723 292.44 231.51C291.793 231.83 291.34 232.33 291.08 233.01C290.513 234.497 289.783 235.857 288.89 237.09C286.27 240.723 283.457 243.997 280.45 246.91C278.25 249.06 275.26 249.9 272.33 250.5C268.957 251.2 266.19 252.353 264.03 253.96C261.56 255.81 258.1 255.44 255.15 255.7C253.93 255.807 253.803 255.483 254.77 254.73C257.657 252.49 260.4 250.033 263 247.36C265.21 245.08 268.36 243.72 269.56 240.64C270.93 237.12 273.26 234.19 276.76 232.7C280.06 231.29 285.05 230.05 288.53 231.04C289.343 231.267 290.173 231.17 291.02 230.75C296.22 228.19 300.82 224.45 305.69 222.14C306.329 221.837 306.839 221.32 307.13 220.68C309.237 216.04 311.207 211.267 313.04 206.36C314.54 202.34 314.9 198.1 317.35 194.34C317.81 193.64 317.69 193.52 316.99 193.98C313.27 196.42 308.76 199.26 304.33 199.96C301.27 200.44 299.5 202.35 297.54 204.44C296.753 205.28 295.777 205.747 294.61 205.84C294.477 205.851 294.344 205.827 294.224 205.77C294.103 205.713 294 205.625 293.924 205.516C293.848 205.407 293.802 205.279 293.791 205.147C293.78 205.014 293.804 204.881 293.86 204.76C296.373 199.253 298.973 194.2 301.66 189.6C303.87 185.83 303.9 181.56 307.32 178.49C308.007 177.87 307.913 177.713 307.04 178.02C301.55 179.94 296.68 181.58 291.28 178.07C289.227 176.737 287.097 175.533 284.89 174.46C282.01 173.04 281.94 170.19 279.97 168.12C277.45 165.47 275.39 166.86 272.51 167.31C269.003 167.863 265.447 168.137 261.84 168.13C255.11 168.12 250.35 169.86 245.58 174.49C245.427 174.637 245.222 174.72 245.008 174.72C244.794 174.72 244.587 174.637 244.43 174.49C244.03 174.11 243.977 173.677 244.27 173.19C246.2 169.98 248.05 167.09 249.33 163.49C251.43 157.63 253.467 151.727 255.44 145.78C257.547 139.42 261.473 132.737 267.22 125.73C267.513 125.37 267.43 125.193 266.97 125.2C262.79 125.273 258.97 123.713 255.51 120.52C255.137 120.173 254.963 120.257 254.99 120.77C255.36 128.09 257.59 135.26 254.05 142.11C251.76 146.55 249.03 150.74 245.42 154.19C241.6 157.843 237.847 161.493 234.16 165.14C231.86 167.41 230.23 170.05 228.49 172.7C228.44 172.776 228.374 172.84 228.296 172.886C228.218 172.933 228.13 172.961 228.039 172.968C227.949 172.976 227.858 172.963 227.773 172.93C227.688 172.898 227.612 172.846 227.55 172.78C227.27 172.473 227.197 172.113 227.33 171.7C228.8 167.19 228.67 163.29 226.63 158.95C224.97 155.41 223.28 151.78 222.56 147.96C221.12 140.36 220.99 134.24 224.34 127.08C224.513 126.707 224.43 126.4 224.09 126.16C220.643 123.787 217.353 120.65 214.22 116.75C211.74 113.67 207.34 117.74 206.56 112.79C206.38 111.637 206.013 111.573 205.46 112.6C201.31 120.27 196.52 128.28 189.07 133.04C178.283 139.927 166.347 142.48 153.26 140.7C152.493 140.6 151.65 140.747 150.73 141.14C150.363 141.293 150.067 141.203 149.84 140.87C149.787 140.79 149.763 140.7 149.77 140.6C149.777 140.373 149.87 140.2 150.05 140.08C152.87 138.167 154.543 136.82 155.07 136.04C158.743 130.64 162.733 123.833 167.04 115.62C167.9 113.973 169.547 112.033 171.98 109.8C172.4 109.413 172.327 109.22 171.76 109.22C167.633 109.227 163.463 108.8 159.25 107.94C154.77 107.02 150.7 104.94 146.5 103.17C142.78 101.62 138.69 101.82 134.99 102.85C134.861 102.884 134.726 102.886 134.597 102.857C134.468 102.827 134.349 102.766 134.25 102.68C134.023 102.48 133.967 102.28 134.08 102.08C134.147 101.96 134.237 101.863 134.35 101.79C140.643 97.5433 146.063 92.7567 150.61 87.43C151.51 86.3767 151.373 86.22 150.2 86.96L145.16 90.16C145.006 90.2556 144.822 90.2911 144.643 90.2598C144.464 90.2284 144.303 90.1324 144.19 89.99C143.46 89.08 143.51 87.64 144.21 86.7C145.73 84.66 147.063 82.5633 148.21 80.41C150.08 76.87 154.04 74.04 157.66 72.21C164.093 68.9567 170.613 66.35 177.22 64.39C178.973 63.87 178.943 63.49 177.13 63.25C167.137 61.8967 157.18 62.4567 147.26 64.93C146.1 65.2167 145.173 65.8967 144.48 66.97C144.28 67.27 144.023 67.5033 143.71 67.67C139.903 69.67 137.14 72.5733 135.42 76.38C134.1 79.28 133.01 82.62 130.81 84.99C128.843 87.11 126.437 89.3233 123.59 91.63C122.103 92.83 120.98 94.0467 120.22 95.28C119.087 97.12 117.857 98.8267 116.53 100.4C116.421 100.529 116.287 100.633 116.136 100.708C115.985 100.782 115.821 100.824 115.653 100.831C115.484 100.839 115.317 100.812 115.16 100.751C115.002 100.691 114.86 100.598 114.74 100.48C114.173 99.9267 114.03 99.3067 114.31 98.62C115.62 95.47 119.78 93.57 120.75 89.93C122.083 84.9967 124.283 80.7833 127.35 77.29C130.61 73.5833 133.493 71.06 136 69.72C137.2 69.0733 138.337 68.3867 139.41 67.66C140.67 66.8067 140.563 66.58 139.09 66.98C136.663 67.64 134.273 68.6 131.92 69.86C130.91 70.41 129.92 70.12 128.92 70.55C120.967 73.9833 114.453 77.4 109.38 80.8C106.893 82.46 104.417 84.5667 101.95 87.12C97.19 92.04 91.34 96.22 85.79 100.09C84.15 101.24 82.34 102.15 80.34 102.62C73.4534 104.26 66.8634 107.86 60.57 113.42C60.4982 113.485 60.4122 113.533 60.3186 113.56C60.225 113.587 60.1263 113.592 60.0299 113.574C59.9336 113.557 59.8421 113.518 59.7624 113.46C59.6827 113.402 59.6169 113.327 59.57 113.24C59.49 113.087 59.4667 112.923 59.5 112.75C59.64 112.077 59.9134 111.553 60.32 111.18C66.92 104.987 72.8067 98.4733 77.98 91.64C78.3734 91.12 78.2467 90.8967 77.6 90.97C76.84 91.0567 76.23 90.8133 75.77 90.24C75.55 89.9733 75.52 89.6867 75.68 89.38C79.55 81.9 82.75 77.18 90.88 74.43C91.7534 74.13 92.54 73.6933 93.24 73.12C95.44 71.3133 97.79 69.71 100.29 68.31C101.037 67.89 100.987 67.6467 100.14 67.58C92.75 66.97 86.8 68.36 79.49 71.01C74.3834 72.8567 69.03 74.89 63.43 77.11C62.47 77.49 61.74 78.11 61.24 78.97C60.3867 80.4233 59.2734 81.8033 57.9 83.11C57.6659 83.3328 57.498 83.6162 57.415 83.9286C57.3321 84.241 57.3373 84.5703 57.43 84.88C57.89 86.4467 57.5634 87.7267 56.45 88.72C56.1834 88.9533 55.8767 89.0433 55.53 88.99C50.81 88.21 51.33 81.68 55.25 82.48C55.6234 82.56 55.9734 82.51 56.3 82.33C57.5867 81.63 58.63 80.5333 59.43 79.04C59.7367 78.4733 59.59 78.31 58.99 78.55L51.58 81.53C51.1667 81.6967 50.9134 81.9967 50.82 82.43C50.68 83.0767 50.53 83.7233 50.37 84.37C49.49 87.85 44.36 86.63 45.16 82.69C45.2467 82.2433 45.3167 81.7967 45.37 81.35C45.5234 80.0033 46.27 79.5 47.61 79.84C48.3967 80.04 49.15 80.27 49.87 80.53C50.21 80.65 50.5434 80.64 50.87 80.5C55.49 78.52 60.28 76.7233 65.24 75.11C67.0334 74.53 66.99 74.2 65.11 74.12C62.6567 74.02 59.92 74.21 56.9 74.69C55.75 74.88 54.78 75.24 54.37 76.45C53.16 80.03 47.92 77.27 50.54 73.62C50.78 73.28 51.1067 73.1233 51.52 73.15C52.84 73.24 54.23 73.45 55.56 73.27C59.7267 72.71 63.91 72.4667 68.11 72.54C70.1834 72.58 72.1467 72.26 74 71.58C77.1134 70.4533 80.22 69.4133 83.32 68.46C84.08 68.2267 84.7767 67.86 85.41 67.36C85.7434 67.1 85.7 66.9833 85.28 67.01C84.6867 67.0567 84.0934 67.0967 83.5 67.13C71.56 67.8433 60.81 68.78 51.25 69.94C48.82 70.24 47.62 73.22 45.12 73.99C41.6334 75.0633 37.86 75.73 33.8 75.99C28.65 76.31 24.45 77.66 19.66 78.98C18.58 79.2733 17.4967 79.4133 16.41 79.4C15.5367 79.3933 15.41 79.0833 16.03 78.47C19.17 75.3567 22.3567 72.5833 25.59 70.15C28.94 67.63 33.57 67.32 37.68 67C41.9067 66.6667 45.57 66.7467 48.67 67.24C52.17 67.8067 54.8134 67.9833 56.6 67.77C71.8 65.9833 87.1834 65.46 102.75 66.2C103.783 66.2467 103.81 66.11 102.83 65.79C92.9767 62.5433 82.9567 59.9067 72.77 57.88C72.3967 57.8067 72.0967 57.9233 71.87 58.23L71.21 59.12C71.113 59.2487 70.9897 59.3554 70.8483 59.433C70.707 59.5105 70.5508 59.5572 70.39 59.57C65.79 59.95 65.39 53.34 69.98 54.26C70.97 54.46 71.47 55.3 72.15 55.97C72.4767 56.29 72.8634 56.4933 73.31 56.58L84.91 58.9C85.6567 59.0467 85.7434 58.87 85.17 58.37C84.0967 57.4367 82.8667 56.8767 81.48 56.69C79.7734 56.4633 78.7567 55.6067 78.43 54.12C78.3635 53.8133 78.3683 53.4954 78.444 53.191C78.5197 52.8866 78.6643 52.6039 78.8665 52.3649C79.0687 52.1259 79.3231 51.9371 79.6099 51.8131C79.8967 51.6891 80.2082 51.6333 80.52 51.65C82.2734 51.7433 83.2 52.66 83.3 54.4C83.3126 54.6124 83.3712 54.8186 83.4715 55.0036C83.5718 55.1887 83.7113 55.348 83.88 55.47C85.3734 56.57 86.9067 57.74 88.48 58.98C89.8534 60.0667 91.53 60.8867 93.51 61.44C99.8434 63.2 106.217 64.98 112.63 66.78C113.377 66.9867 113.533 66.77 113.1 66.13L111.11 63.2C110.71 62.6067 110.157 62.2533 109.45 62.14C101.617 60.88 95.71 57.04 91.73 50.62C91.6072 50.4227 91.5361 50.1976 91.5235 49.9655C91.5109 49.7334 91.5571 49.5019 91.6578 49.2924C91.7586 49.0829 91.9106 48.9023 92.0998 48.7673C92.289 48.6322 92.5092 48.5472 92.74 48.52C93.5267 48.42 94.2767 48.5033 94.99 48.77C101.543 51.1833 106.737 54.98 110.57 60.16C111.963 62.04 113.367 63.9333 114.78 65.84C115.044 66.1992 115.381 66.4994 115.768 66.7215C116.156 66.9436 116.585 67.0827 117.03 67.13L129.77 68.46C130.13 68.5 130.477 68.45 130.81 68.31C136.463 66.0233 142.427 64.2867 148.7 63.1C148.817 63.0777 148.92 63.0122 148.989 62.9172C149.058 62.8221 149.087 62.7049 149.07 62.59L149.04 62.33C149.027 62.2567 148.983 62.2233 148.91 62.23C145.177 62.5567 141.753 61.9867 138.64 60.52C134.94 58.78 132.14 57.41 127.91 56.86C123.243 56.2533 118.41 55.5133 113.41 54.64C112.843 54.54 112.473 54.2133 112.3 53.66C112.213 53.3867 112.253 53.1267 112.42 52.88C112.503 52.7564 112.621 52.6607 112.761 52.6054C112.9 52.5501 113.053 52.5377 113.2 52.57C118.167 53.6967 122.397 53.3967 125.89 51.67C134.6 47.36 143 49.7 151.21 54C154.59 55.77 157.54 57.14 159.04 60.99C159.113 61.1809 159.252 61.3402 159.432 61.4405C159.613 61.5409 159.824 61.576 160.03 61.54C162.857 61.0333 165.687 60.8833 168.52 61.09C173.593 61.45 178.87 61.9667 184.35 62.64C186.32 62.89 188.1 63.79 190.06 64.19C191.067 64.39 191.16 64.1833 190.34 63.57C187.88 61.7 184.08 60.65 181.15 59.59C175.73 57.63 169.88 56.57 164.93 54.82C161.91 53.7467 158.783 52.2567 155.55 50.35C153.15 48.94 150.39 48.16 147.68 47.32C147.56 47.2822 147.451 47.2148 147.364 47.124C147.277 47.0332 147.214 46.9219 147.181 46.8004C147.148 46.6788 147.146 46.5509 147.176 46.4285C147.205 46.3062 147.265 46.1932 147.35 46.1C149.49 43.7733 152.08 43.0833 155.12 44.03C158.553 45.11 161.953 46.2733 165.32 47.52C168.013 48.52 170.5 48.86 172.78 48.54C178.5 47.72 182.9 48.45 187.48 52.56C191.3 55.9867 195.143 59.9533 199.01 64.46C200.63 66.34 202.707 67.55 205.24 68.09C205.707 68.19 205.837 68.0233 205.63 67.59C203.79 63.7633 204.83 60.5067 208.75 57.82C210.47 56.64 212.89 55.13 211.6 52.64C209.31 48.23 209.76 41.54 215.57 40.16C220.237 39.06 223.88 39.83 226.5 42.47C228.91 44.91 229.66 48.34 231.46 51.18C233.28 54.05 235.98 55.79 237.45 59.09C239.07 62.69 237.8 66.93 238.52 70.79C238.92 72.91 239.067 75.0633 238.96 77.25C238.933 77.8367 239.087 77.89 239.42 77.41C240.987 75.19 241.62 72.91 241.32 70.57C240.78 66.3167 240.707 61.0567 241.1 54.79C241.61 46.46 245.92 40.11 255.19 41.67C260.03 42.48 259.7 47.05 264.42 48.43C268.647 49.67 272.073 51.9633 274.7 55.31C274.724 55.3412 274.755 55.3658 274.792 55.3814C274.828 55.397 274.867 55.4031 274.906 55.3991C274.945 55.3951 274.983 55.3811 275.015 55.3585C275.047 55.3359 275.073 55.3054 275.09 55.27L276.57 52.26C276.677 52.0267 276.63 51.8333 276.43 51.68C273.83 49.6733 271.643 47.54 269.87 45.28C266.81 41.38 262.64 38.14 260.33 34.02C257.797 29.4933 255.203 25.4467 252.55 21.88C252.453 21.7501 252.397 21.5948 252.387 21.4332C252.378 21.2716 252.416 21.1108 252.497 20.9705C252.577 20.8302 252.698 20.7166 252.842 20.6437C252.987 20.5708 253.149 20.5417 253.31 20.56C254.76 20.73 256.09 20.9 257.56 20.64C266.42 19.1 276.86 17.92 285.23 20.06C291.78 21.74 298.99 27.8 303.5 32.58C303.833 32.9333 304.177 32.9467 304.53 32.62C307.53 29.88 312.74 30.5 316.39 31.54C319.063 32.3067 321.42 31.6633 323.46 29.61C325.33 27.74 324.29 24.45 324.03 22.1C323.969 21.5219 324.091 20.9396 324.381 20.4365C324.67 19.9334 325.111 19.5355 325.64 19.3C329.64 17.51 339.66 18.19 342.69 22.2C345.417 25.82 346.52 30.09 346 35.01C345.493 39.8233 344.94 44.72 344.34 49.7C344.327 49.8267 344.383 49.9033 344.51 49.93L344.79 49.99C344.803 49.9967 344.81 49.9933 344.81 49.98C345.37 47.9267 345.88 45.82 346.34 43.66C347.027 40.44 348.533 37.23 350.86 34.03C353.147 30.8767 356.467 30.31 360.82 32.33C363.807 33.71 366.88 35.0233 370.04 36.27C374.84 38.16 377.78 42.98 375.56 47.99C375.28 48.61 375.017 49.25 374.77 49.91C374.559 50.4774 374.574 51.1042 374.813 51.6607C375.051 52.2172 375.494 52.6609 376.05 52.9C378.71 54.0467 381.387 55.16 384.08 56.24C393.56 60.04 390.92 72.45 387.2 79.48C383.65 86.18 378.11 90.13 370.92 93.03C370.513 93.1967 370.373 93.4867 370.5 93.9C371.68 97.8133 373.113 101.617 374.8 105.31C376.79 109.69 377.1 117.47 372.65 120.63C369.297 123.01 366.87 127.02 365.37 132.66C363.443 139.953 359.787 146.2 354.4 151.4C354.293 151.5 354.24 151.623 354.24 151.77C354.247 152.057 354.37 152.12 354.61 151.96C358.15 149.593 362.173 148.53 366.68 148.77C369.307 148.91 372.52 149.923 376.32 151.81C383.41 155.33 391.02 158.73 398.66 160.15C399.053 160.223 399.323 160.443 399.47 160.81C399.492 160.861 399.502 160.917 399.497 160.973C399.493 161.029 399.474 161.084 399.444 161.132C399.414 161.18 399.372 161.22 399.323 161.249C399.273 161.279 399.217 161.296 399.16 161.3C396.53 161.51 393.68 160.99 391.24 162.22C387.78 163.98 383.8 165.92 381.18 168.82C375.98 174.57 367.31 180.03 359.31 177.79C357.377 177.25 355.57 176.683 353.89 176.09ZM337.74 25.49C339.69 25.19 341.24 26.11 342.72 27.24C343.447 27.8 343.667 27.6433 343.38 26.77C342.52 24.19 341.3 22.34 338.57 21.26C334.983 19.84 331.367 19.4933 327.72 20.22C326.273 20.5067 325.657 21.3767 325.87 22.83C326.057 24.09 326.203 25.3767 326.31 26.69C326.66 31.23 321.71 33.2 318.09 33.45C317.49 33.4967 317.447 33.68 317.96 34C324.71 38.23 326.48 32.52 330.06 28.56C330.293 28.3 330.587 28.1433 330.94 28.09C331.807 27.97 332.67 27.8967 333.53 27.87C335.5 27.8 335.92 25.77 337.74 25.49ZM285.83 28.98C285.897 28.84 286 28.8033 286.14 28.87C289.107 30.21 291.837 31.8267 294.33 33.72C296.71 35.52 298.38 38.24 300.44 40.44C300.887 40.9133 301.07 40.83 300.99 40.19C300.73 38.05 301.213 36.1533 302.44 34.5C302.687 34.1667 302.663 33.8533 302.37 33.56C295.51 26.59 287.64 20.37 277.33 20.25C270.303 20.17 263.387 20.7433 256.58 21.97C256.546 21.9758 256.513 21.9916 256.488 22.0154C256.462 22.0391 256.444 22.0699 256.435 22.1038C256.427 22.1378 256.428 22.1735 256.44 22.2066C256.451 22.2396 256.472 22.2686 256.5 22.29C261.333 26.2567 266.313 29.0167 271.44 30.57C273.44 31.1767 273.597 30.8633 271.91 29.63C269.977 28.21 267.993 26.4633 265.96 24.39C265.921 24.3498 265.891 24.3022 265.87 24.2502C265.85 24.1982 265.841 24.1428 265.843 24.0875C265.844 24.0322 265.858 23.9782 265.881 23.9288C265.905 23.8793 265.939 23.8355 265.98 23.8L266.18 23.63C266.321 23.5061 266.5 23.4352 266.687 23.4297C266.873 23.4242 267.055 23.4845 267.2 23.6C270.533 26.1667 273.623 28.84 276.47 31.62C277.49 32.6133 278.67 33.39 280.01 33.95C286.263 36.5633 292.72 40.1133 299.38 44.6C301.88 46.28 302.23 45.91 300.43 43.49C298.55 40.9567 296.58 38.6 294.52 36.42C291.99 33.74 288.83 32.09 285.89 29.93C285.785 29.8498 285.71 29.7378 285.678 29.6124C285.645 29.4869 285.656 29.3556 285.71 29.24L285.83 28.98ZM274.36 37.67C277.367 39.0967 281.11 39.4767 285.59 38.81C285.634 38.8028 285.677 38.7866 285.714 38.7625C285.752 38.7384 285.784 38.7069 285.809 38.6702C285.833 38.6334 285.85 38.5921 285.857 38.549C285.864 38.5059 285.862 38.4619 285.85 38.42C285.803 38.24 285.69 38.11 285.51 38.03C279.01 35.07 272.713 32.5233 266.62 30.39C263.473 29.29 260.13 27.21 256.59 24.15C256.563 24.1233 256.533 24.1267 256.5 24.16L256.32 24.34C256.247 24.4117 256.204 24.5087 256.2 24.611C256.197 24.7133 256.232 24.8132 256.3 24.89C259.64 28.73 261.1 33.21 264.54 36.87C268.91 41.53 272.64 46.4 277.61 50.56C277.897 50.7933 278.163 50.7733 278.41 50.5C280.91 47.7133 283.84 46.4 287.2 46.56C291.493 46.76 295.203 47.79 298.33 49.65C301.21 51.37 303.54 53.77 306.97 54.23C308.457 54.43 309.907 54.7533 311.32 55.2C311.947 55.4 312.057 55.24 311.65 54.72C310.29 52.9667 308.693 51.61 306.86 50.65C302.047 48.1233 297.133 45.2 292.12 41.88C290.56 40.84 288.16 40.16 286.28 40.28C282.51 40.51 278.31 41 274.67 39.51C274.458 39.4241 274.272 39.2868 274.127 39.1104C273.982 38.934 273.883 38.7242 273.84 38.5L273.77 38.13C273.67 37.5833 273.867 37.43 274.36 37.67ZM335.91 74.93C335.903 75.03 335.883 75.1267 335.85 75.22C335.643 75.7933 335.763 75.8733 336.21 75.46C337.97 73.8467 340.033 72.6833 342.4 71.97C345.5 71.03 347.39 74.73 347.34 77.26C347.3 79.41 344.74 80.4 343.06 80.01C342 79.7567 340.897 79.3467 339.75 78.78C339.546 78.6793 339.324 78.6236 339.098 78.6167C338.871 78.6098 338.647 78.6519 338.44 78.74C337.08 79.3133 335.817 79.2033 334.65 78.41C334.495 78.3024 334.364 78.1645 334.264 78.0046C334.165 77.8447 334.099 77.6662 334.07 77.48C333.93 76.6133 333.583 75.8167 333.03 75.09C332.906 74.9266 332.825 74.7356 332.791 74.5335C332.758 74.3314 332.775 74.1242 332.84 73.93C333.053 73.2967 332.943 72.72 332.51 72.2C332.443 72.1133 332.357 72.0833 332.25 72.11L331.84 72.22C331.527 72.3067 331.49 72.4633 331.73 72.69C331.997 72.95 332.123 73.2333 332.11 73.54C332.103 73.7024 332.049 73.8593 331.954 73.9916C331.859 74.1238 331.729 74.2258 331.577 74.2851C331.426 74.3443 331.26 74.3584 331.101 74.3256C330.942 74.2927 330.796 74.2144 330.68 74.1C329.427 72.8467 328.157 71.5633 326.87 70.25C325.59 68.94 325.19 67.05 323.64 65.94C323.407 65.7733 323.147 65.6867 322.86 65.68C317.04 65.62 312.44 63.6333 309.06 59.72C307.927 58.4133 306.607 57.7033 305.1 57.59C304.713 57.5567 304.37 57.41 304.07 57.15C301.817 55.1767 299.103 54.1267 295.93 54C293.62 53.91 292.46 55.47 291.11 56.99C290.958 57.1611 290.773 57.3004 290.565 57.3999C290.357 57.4995 290.131 57.5573 289.9 57.57C286.38 57.8 280.58 57.57 280.66 62.54C280.71 65.6 282.92 67.83 280.37 70.69C279.317 71.87 278.353 73.09 277.48 74.35C275.307 77.4833 275.26 80.5067 277.34 83.42C278.93 85.65 282.03 87.25 284.73 87.69C296.09 89.51 306.85 86.89 317.16 81.26C320.55 79.41 323.73 78.51 327.5 78.59C328.127 78.6033 328.697 78.44 329.21 78.1C329.643 77.8133 329.607 77.6167 329.1 77.51L324.06 76.44C323.72 76.3667 323.39 76.3933 323.07 76.52C318.57 78.28 317.17 71.74 320.26 69.84C320.458 69.7208 320.684 69.6546 320.915 69.6476C321.146 69.6406 321.375 69.6931 321.58 69.8C323.39 70.77 323.82 72.57 324.2 74.44C324.243 74.6442 324.355 74.8266 324.518 74.9548C324.681 75.083 324.884 75.1487 325.09 75.14C325.403 75.1267 325.667 74.9867 325.88 74.72C326.14 74.3933 326.473 74.2867 326.88 74.4C328.713 74.9267 330.353 75.6233 331.8 76.49C331.98 76.5994 332.126 76.7587 332.218 76.9485C332.31 77.1383 332.346 77.3504 332.321 77.5591C332.295 77.7677 332.21 77.964 332.075 78.1239C331.94 78.2839 331.761 78.4006 331.56 78.46C329.27 79.16 327.34 81.9 326.07 83.88C325.977 84.02 326.003 84.1367 326.15 84.23L326.38 84.38C326.388 84.3843 326.397 84.3873 326.406 84.3886C326.415 84.39 326.424 84.3897 326.432 84.3879C326.44 84.386 326.448 84.3826 326.455 84.3778C326.461 84.373 326.466 84.367 326.47 84.36C327.377 82.88 328.497 81.66 329.83 80.7C330.083 80.5267 330.363 80.4367 330.67 80.43C331.55 80.4167 332.273 80.05 332.84 79.33C332.907 79.245 332.995 79.1793 333.095 79.1395C333.196 79.0998 333.305 79.0874 333.412 79.1037C333.519 79.1199 333.619 79.1643 333.703 79.2322C333.787 79.3 333.852 79.389 333.89 79.49C334.183 80.2367 334.643 80.8667 335.27 81.38C335.557 81.6133 335.853 81.62 336.16 81.4C337.71 80.29 338.88 79.91 340.81 80.82C344.27 82.4667 347.85 84.4033 351.55 86.63C355.29 88.8767 358.663 90.2567 361.67 90.77C363.543 91.0967 365.593 91.31 367.82 91.41C369.153 91.47 370.38 91.2533 371.5 90.76C380.547 86.7467 386.193 79.97 388.44 70.43C388.93 68.31 388.85 66.01 388.6 63.87C388.18 60.35 386.27 58.68 382.95 57.49C379.1 56.11 372.72 54.52 372.72 49.6C372.72 47.52 371.943 45.81 370.39 44.47C370.143 44.2633 369.86 44.1533 369.54 44.14C367.113 44.0067 365.307 42.8967 364.12 40.81C363.933 40.4833 363.673 40.2367 363.34 40.07C362.053 39.43 360.78 38.7033 359.52 37.89C355.77 35.44 351.78 40.2 348.8 43.12C348.56 43.3533 348.397 43.6367 348.31 43.97C346.43 51.4567 344.127 58.98 341.4 66.54C340.867 68.0267 340.203 69.4267 339.41 70.74C339.157 71.1533 338.843 71.5133 338.47 71.82C337.71 72.4333 337.117 72.4533 336.69 71.88C336.617 71.78 336.62 71.6833 336.7 71.59C339.22 68.63 340.98 64.24 340.25 60.22C339.37 55.36 342.22 52.09 342.68 48C343.213 43.3267 343.75 38.6633 344.29 34.01C344.703 30.4833 342.963 28.3033 339.07 27.47C338.89 27.4301 338.702 27.4377 338.526 27.492C338.349 27.5463 338.188 27.6455 338.06 27.78L336.83 29.05C336.477 29.4167 336.043 29.5933 335.53 29.58L332.78 29.49C332.365 29.4784 331.956 29.5827 331.597 29.7912C331.239 29.9996 330.945 30.304 330.75 30.67C328.38 35.07 324.31 39.38 318.94 36.29C315.993 34.6033 313.073 33.62 310.18 33.34C309.788 33.3072 309.413 33.1613 309.1 32.92C308.46 32.4267 307.77 32.4067 307.03 32.86C304.303 34.5133 302.817 36.49 302.57 38.79C302.21 42.23 304.2 45.63 306.88 47.63C310.34 50.1967 313.597 52.85 316.65 55.59C319.75 58.37 322.21 61.76 325.07 64.81C326.3 66.12 326.86 67.72 327.98 69.14C328.86 70.2467 329.22 70.1 329.06 68.7C328.58 64.48 335.41 64.48 334.59 69.66C334.397 70.9133 334.373 72.1367 334.52 73.33C334.56 73.6167 334.693 73.8467 334.92 74.02L335.81 74.68C335.89 74.7467 335.923 74.83 335.91 74.93ZM351.87 37.3C357.49 33.72 359.04 36.42 363.89 38.69C365.44 39.42 366.19 40.88 367.39 42.01C367.643 42.2433 367.937 42.3933 368.27 42.46L371.32 43.08C371.713 43.16 372.02 43.36 372.24 43.68L373.75 45.85C374.003 46.2167 374.213 46.1933 374.38 45.78C375.69 42.49 372.52 38.81 369.56 37.86C366.86 37 364.093 35.8033 361.26 34.27C356.94 31.9367 353.683 32.83 351.49 36.95C351.163 37.55 351.29 37.6667 351.87 37.3ZM213.21 54.59L212.44 56.43C212.415 56.4831 212.409 56.5425 212.423 56.5988C212.437 56.6551 212.471 56.705 212.518 56.7407C212.565 56.7763 212.623 56.7956 212.683 56.7955C212.744 56.7954 212.802 56.7758 212.85 56.74C214.33 55.59 214.57 53.51 214.88 51.79C215.25 49.69 217.94 48.08 219.74 49.46C221.387 50.7133 222.993 52.6967 224.56 55.41C224.578 55.4417 224.602 55.4696 224.631 55.4919C224.659 55.5142 224.692 55.5305 224.727 55.5399C224.761 55.5492 224.797 55.5514 224.832 55.5463C224.867 55.5411 224.9 55.5288 224.93 55.51C226.637 54.5367 228.357 53.5267 230.09 52.48C230.297 52.3533 230.34 52.1833 230.22 51.97C227.28 46.62 226.88 41.06 219.14 41.08C217.613 41.0867 216.277 41.3267 215.13 41.8C211.57 43.27 210.94 48.43 212.53 51.51C212.843 52.11 213.093 52.73 213.28 53.37C213.407 53.7833 213.383 54.19 213.21 54.59ZM273.83 62.77C276.29 64.99 276.29 67.1 277.48 70.19C277.533 70.3367 277.633 70.3833 277.78 70.33L277.79 70.32C277.923 70.2733 277.97 70.1767 277.93 70.03C277.517 68.55 277.383 67.0433 277.53 65.51C277.575 64.9894 277.46 64.4692 277.2 64.02C276.213 62.32 275.523 60.6633 275.13 59.05C274.757 57.4833 273.947 56.0733 272.7 54.82C269.31 51.4 266.26 50.24 262.09 48.67C258.89 47.47 258.76 42.97 255.17 42.97C252.48 42.97 248.61 42.49 246.89 44.94C246.597 45.3667 246.703 45.5333 247.21 45.44C254.41 44.17 257.2 47.58 260.54 53.12C262.34 56.12 264.46 55.87 267.46 56.47C270.55 57.09 271.67 60.81 273.83 62.77ZM155.41 48.24C160.8 51.18 165.59 53.71 171.79 55.05C176.263 56.0233 181.023 57.5 186.07 59.48C188.97 60.62 191.58 62.13 194.44 63.34C195.32 63.7133 195.457 63.53 194.85 62.79C191.943 59.2833 188.903 56.1867 185.73 53.5C181.923 50.28 177.943 49.0733 173.79 49.88C170.7 50.48 167.24 50.21 164.3 49.11C160.647 47.7433 156.793 46.44 152.74 45.2C151.86 44.9267 151.11 44.97 150.49 45.33C150.393 45.3847 150.315 45.4665 150.264 45.5653C150.213 45.6641 150.192 45.7756 150.204 45.8861C150.215 45.9966 150.259 46.1013 150.33 46.1872C150.4 46.2732 150.494 46.3367 150.6 46.37C152.25 46.93 153.89 47.41 155.41 48.24ZM243.17 85.22C242.85 85.08 242.507 85.04 242.14 85.1C242.069 85.1085 242.002 85.1407 241.952 85.1915C241.901 85.2423 241.869 85.3087 241.86 85.38L241.83 85.69C241.81 85.89 241.9 86 242.1 86.02C243.633 86.1467 244.607 86.16 245.02 86.06C251.66 84.3933 258.317 82.79 264.99 81.25C269.41 80.23 275.26 77.83 275.53 72.51C275.71 69.14 275.34 65.66 272.66 63.29C271.447 62.2167 270.423 60.94 269.59 59.46C269.363 59.0533 269.063 58.6933 268.69 58.38C268.177 57.9533 267.783 57.7233 267.51 57.69C263.51 57.16 261.1 56.74 259.06 53.41C256.19 48.7 253.12 44.58 246.77 46.89C244.623 47.67 243.377 49.2467 243.03 51.62C242.123 57.8333 241.983 63.8933 242.61 69.8C242.91 72.61 242.61 75.26 240.92 77.62C239.273 79.92 238.653 82.7233 239.06 86.03C239.12 86.5033 239.31 86.5633 239.63 86.21C240.577 85.1833 240.733 83.9033 240.1 82.37C239.974 82.0639 239.923 81.7321 239.952 81.4021C239.98 81.0721 240.087 80.7535 240.264 80.4728C240.441 80.1922 240.683 79.9575 240.969 79.7882C241.256 79.619 241.578 79.5202 241.91 79.5C245.16 79.31 246.11 83.19 243.89 85.11C243.677 85.2967 243.437 85.3333 243.17 85.22ZM278.69 61.29C279.37 57.55 282.15 56.46 285.42 56.29C286.93 56.21 288.57 56.59 289.66 55.22C291.3 53.18 292.52 52.24 295.51 52.52C297.183 52.68 298.723 52.9067 300.13 53.2C300.757 53.3333 300.827 53.1967 300.34 52.79C297.213 50.17 293.59 48.6567 289.47 48.25C287 48.01 285.45 47.71 283.57 48.81C281.543 49.9967 279.65 51.6667 277.89 53.82C275.8 56.37 276.35 58.83 277.63 61.44C278.13 62.4533 278.483 62.4033 278.69 61.29ZM100.98 55.34C101.047 54.84 101.287 54.7367 101.7 55.03C103.207 56.1033 104.233 56.8033 104.78 57.13C107.34 58.7033 107.493 58.4933 105.24 56.5C101.907 53.56 98.4767 51.5267 94.95 50.4C93.4967 49.9333 93.2534 50.29 94.22 51.47C95.88 53.5 101.03 58.66 103.92 58.7C104.613 58.7133 104.66 58.54 104.06 58.18L101.39 56.6C101.229 56.5011 101.1 56.3587 101.018 56.1901C100.936 56.0216 100.906 55.834 100.93 55.65L100.98 55.34ZM232.17 80.06C232.377 79.34 232.733 78.74 233.24 78.26C233.54 77.9667 233.897 77.8733 234.31 77.98C236.07 78.44 236.56 80.11 236.05 81.72C235.617 83.0867 235.767 84.3033 236.5 85.37C237.213 86.41 237.577 86.3 237.59 85.04C237.61 82.8933 237.663 80.76 237.75 78.64C237.83 76.6467 237.717 74.75 237.41 72.95C236.877 69.83 236.677 66.5933 236.81 63.24C236.97 59.27 234.61 55.97 231.32 54.03C231.151 53.9284 230.956 53.8781 230.761 53.8852C230.565 53.8923 230.377 53.9566 230.22 54.07C227.59 55.97 224.14 58.42 222.02 54.02C221.327 52.5867 220.35 51.42 219.09 50.52C218.933 50.4098 218.753 50.3356 218.564 50.3027C218.375 50.2699 218.181 50.2791 217.996 50.3298C217.812 50.3805 217.641 50.4713 217.496 50.5959C217.352 50.7204 217.237 50.8755 217.16 51.05C216.14 53.36 216.06 56.55 213.77 57.97C212.13 58.9767 210.417 59.7533 208.63 60.3C205.28 61.33 205.68 65.42 207.47 67.8C208.92 69.73 211.48 70.51 213.44 71.75C214.867 72.65 216.257 73.4967 217.61 74.29C222.237 76.9833 226.82 79.5433 231.36 81.97C231.475 82.0299 231.604 82.0581 231.733 82.0519C231.862 82.0456 231.987 82.005 232.095 81.9343C232.202 81.8637 232.288 81.7656 232.344 81.6505C232.399 81.5353 232.422 81.4073 232.41 81.28C232.397 81.08 232.34 80.8933 232.24 80.72C232.127 80.5133 232.103 80.2933 232.17 80.06ZM143.2 52.31C136.767 50.0433 130.393 50.7367 124.08 54.39C123.507 54.7167 123.55 54.88 124.21 54.88C129.377 54.9067 134.187 56.1367 138.64 58.57C143.58 61.28 150.05 60.67 155.46 60.37C156.927 60.2833 157.063 59.8133 155.87 58.96C151.843 56.08 147.62 53.8633 143.2 52.31ZM81.1998 53.9964C81.2303 53.8893 81.1795 53.7637 81.0586 53.6474C80.9377 53.5311 80.7566 53.4335 80.5551 53.3761C80.4554 53.3477 80.3536 53.33 80.2556 53.324C80.1576 53.318 80.0654 53.3239 79.9842 53.3414C79.9029 53.3588 79.8343 53.3874 79.7821 53.4255C79.73 53.4636 79.6953 53.5105 79.6802 53.5636C79.6497 53.6707 79.7005 53.7963 79.8214 53.9126C79.9423 54.0289 80.1235 54.1265 80.3249 54.1839C80.4247 54.2123 80.5265 54.23 80.6245 54.236C80.7224 54.242 80.8147 54.2361 80.8959 54.2186C80.9772 54.2012 81.0458 54.1726 81.098 54.1345C81.1501 54.0964 81.1847 54.0494 81.1998 53.9964ZM342.06 59.1615C342.123 59.1741 342.198 59.1232 342.281 59.0117C342.364 58.9001 342.453 58.7302 342.543 58.5114C342.634 58.2927 342.723 58.0295 342.806 57.7369C342.89 57.4443 342.966 57.128 343.031 56.806C343.16 56.1559 343.234 55.5222 343.236 55.0445C343.238 54.5667 343.167 54.284 343.04 54.2585C342.977 54.2459 342.902 54.2968 342.819 54.4083C342.736 54.5199 342.647 54.6898 342.557 54.9086C342.467 55.1273 342.377 55.3905 342.294 55.6831C342.21 55.9757 342.134 56.292 342.07 56.614C341.94 57.2641 341.866 57.8978 341.864 58.3755C341.862 58.8533 341.933 59.136 342.06 59.1615ZM69.341 57.3678C69.5007 57.268 69.6053 57.0946 69.6318 56.8857C69.6582 56.6768 69.6044 56.4495 69.4821 56.2538C69.3599 56.0581 69.1792 55.9101 68.9798 55.8423C68.7804 55.7745 68.5787 55.7924 68.419 55.8922C68.2594 55.992 68.1548 56.1654 68.1283 56.3743C68.1019 56.5832 68.1557 56.8105 68.2779 57.0062C68.4002 57.2019 68.5809 57.3499 68.7803 57.4177C68.9796 57.4855 69.1813 57.4676 69.341 57.3678ZM308.31 55.92C307.03 55.54 306.853 55.83 307.78 56.79C309.587 58.65 311.39 60.28 313.19 61.68C315.54 63.51 318.34 63.64 321.11 64.2C322.103 64.4 322.223 64.1633 321.47 63.49C317.397 59.8567 313.01 57.3333 308.31 55.92ZM182.89 65.88C180.577 66.94 178.077 67.7633 175.39 68.35C169.96 69.53 165.76 74.06 161.78 77.93C161.607 78.1033 161.6 78.28 161.76 78.46L161.94 78.66C161.967 78.6933 161.997 78.6967 162.03 78.67C166.077 75.61 170.653 74.3567 175.76 74.91C179.573 75.3167 183.403 75.71 187.25 76.09C190.077 76.37 192.883 77.01 195.67 78.01C196.343 78.2567 196.513 78.06 196.18 77.42C193.99 73.24 198.13 70.3 201.39 68.73C201.97 68.4567 201.95 68.24 201.33 68.08C196.397 66.84 191.977 65.8467 188.07 65.1C186.437 64.7867 184.71 65.0467 182.89 65.88ZM279.86 66.27C279.687 66.01 279.543 65.7367 279.43 65.45C279.197 64.85 279.043 64.87 278.97 65.51L278.67 68.02C278.557 68.9867 278.853 69.1367 279.56 68.47C280.287 67.79 280.387 67.0567 279.86 66.27ZM332.36 68.99C332.813 68.49 332.82 68 332.38 67.52C332.269 67.3982 332.127 67.3078 331.97 67.258C331.813 67.2081 331.645 67.2006 331.484 67.236C331.323 67.2715 331.174 67.3488 331.052 67.4601C330.93 67.5713 330.84 67.7127 330.79 67.87C330.563 68.5967 330.523 69.3 330.67 69.98C330.77 70.4333 331.003 70.5167 331.37 70.23C331.82 69.88 332 69.4 332.36 68.99ZM103.46 81.3C104.16 81.8067 104.873 81.81 105.6 81.31C111.747 77.05 118.157 73.5567 124.83 70.83C126.963 69.9567 126.88 69.4433 124.58 69.29C118.087 68.85 111.443 68.2767 104.65 67.57C104.39 67.5433 104.147 67.5967 103.92 67.73C99.4 70.45 93.83 73.03 91.38 78.08C90.4467 80.0067 89.4667 81.86 88.44 83.64C87.96 84.4733 88.14 84.66 88.98 84.2C91.2534 82.96 93.7367 82.3767 96.43 82.45C96.8767 82.4633 97.3 82.3667 97.7 82.16C99.2734 81.3467 100.797 80.9333 102.27 80.92C102.699 80.9199 103.115 81.0528 103.46 81.3ZM35.08 71.83C34.86 71.53 34.93 71.33 35.29 71.23C39.1234 70.1633 43.0367 69.4667 47.03 69.14C47.1767 69.1267 47.2334 69.0467 47.2 68.9L47.14 68.62C47.1134 68.4867 47.03 68.4167 46.89 68.41C43.2367 68.1633 39.0834 68.2967 34.43 68.81C31.97 69.0833 29.8367 69.75 28.03 70.81C25.55 72.2633 23.3034 73.88 21.29 75.66C19.5167 77.2333 19.74 77.6 21.96 76.76C25.28 75.51 28.88 74.68 32.48 74.53C36.34 74.37 40.3367 73.7067 44.47 72.54C45.2834 72.3133 45.9867 71.9167 46.58 71.35C47.16 70.79 47.05 70.57 46.25 70.69L35.68 72.29C35.6073 72.2994 35.5337 72.2896 35.4669 72.2614C35.4 72.2333 35.3424 72.1879 35.3 72.13L35.08 71.83ZM169.69 68.68C165.2 70.43 160.64 72.47 156.36 74.8C151.45 77.47 148.95 81.5 146.28 86.37C145.727 87.3633 145.943 87.5733 146.93 87C151.237 84.4733 155.287 81.64 159.08 78.5C162.07 76.01 164.4 72.43 167.79 70.54C168.543 70.1133 169.25 69.6133 169.91 69.04C170.53 68.4933 170.457 68.3733 169.69 68.68ZM201.85 73.34C202.543 72.5133 203.383 71.8567 204.37 71.37C204.577 71.27 204.703 71.1067 204.75 70.88C204.81 70.56 204.43 70.3533 203.61 70.26C203.263 70.22 202.92 70.2333 202.58 70.3C200.773 70.6667 199.207 71.6567 197.88 73.27C194.09 77.89 203.92 78.86 200.47 84.22C199.497 85.7467 198.777 87.08 198.31 88.22C197.117 91.1533 197.513 94.23 199.5 97.45C199.6 97.6033 199.74 97.6967 199.92 97.73C200.34 97.81 200.467 97.6533 200.3 97.26C197.62 91.06 202.64 88.44 203.46 81.76C203.5 81.4467 203.447 81.1467 203.3 80.86C202.26 78.8133 201.65 76.7 201.47 74.52C201.437 74.0733 201.563 73.68 201.85 73.34ZM211.471 72.5437C211.489 72.5086 211.471 72.4556 211.418 72.3878C211.365 72.32 211.279 72.2387 211.163 72.1486C211.047 72.0584 210.905 71.9611 210.744 71.8623C210.584 71.7635 210.408 71.6651 210.226 71.5727C210.045 71.4803 209.862 71.3957 209.687 71.3237C209.513 71.2518 209.351 71.1939 209.21 71.1534C209.069 71.1129 208.952 71.0905 208.866 71.0876C208.78 71.0846 208.727 71.1012 208.709 71.1363C208.691 71.1714 208.709 71.2244 208.762 71.2922C208.815 71.36 208.902 71.4413 209.017 71.5314C209.133 71.6216 209.275 71.7189 209.436 71.8177C209.596 71.9165 209.772 72.0149 209.954 72.1073C210.135 72.1997 210.318 72.2843 210.493 72.3563C210.667 72.4282 210.829 72.4861 210.97 72.5266C211.111 72.5671 211.228 72.5895 211.314 72.5924C211.4 72.5954 211.453 72.5788 211.471 72.5437ZM321.271 75.4069C321.485 75.3949 321.679 75.1751 321.81 74.7959C321.941 74.4167 321.998 73.9091 321.969 73.3848C321.939 72.8605 321.826 72.3625 321.654 72.0002C321.481 71.6379 321.264 71.4412 321.05 71.4531C320.835 71.4651 320.641 71.6849 320.51 72.0641C320.379 72.4433 320.322 72.9509 320.351 73.4752C320.381 73.9995 320.494 74.4975 320.666 74.8598C320.839 75.2221 321.056 75.4188 321.271 75.4069ZM231.82 84.46C233.027 85.08 233.597 85.9267 233.53 87C233.497 87.5667 233.21 87.76 232.67 87.58C232.057 87.3733 231.497 87.0667 230.99 86.66C230.877 86.5667 230.76 86.5667 230.64 86.66C230.053 87.12 229.823 87.7833 229.95 88.65C229.956 88.7096 229.975 88.7673 230.006 88.8191C230.037 88.8709 230.08 88.9156 230.13 88.95C230.537 89.25 231.013 89.37 231.56 89.31C231.872 89.2775 232.166 89.1481 232.4 88.94C233.12 88.3 233.98 88.0367 234.98 88.15C235.453 88.2033 235.603 88.0033 235.43 87.55L234.5 85.13C234.367 84.7833 234.133 84.5333 233.8 84.38C228.847 82.0533 223.94 79.45 219.08 76.57C216.48 75.02 213.52 74.25 210.62 73.63C209.49 73.39 208.46 72.69 207.45 72.14C207.137 71.9733 206.82 71.96 206.5 72.1C205.287 72.6333 204.26 73.4333 203.42 74.5C203.193 74.7867 203.107 75.11 203.16 75.47C203.407 77.1633 203.937 78.86 204.75 80.56C206.02 83.21 203.49 88.09 202.2 90.49C201.413 91.95 201.08 93.55 201.2 95.29C201.51 99.96 205.01 100.58 208.91 100.61C213.54 100.66 218 100.4 221.75 97.6C223.643 96.1933 225.607 94.9367 227.64 93.83C228.04 93.61 228.027 93.4267 227.6 93.28C227.027 93.08 226.413 92.9967 225.76 93.03C225.593 93.0367 225.46 92.9733 225.36 92.84C225.293 92.76 225.26 92.6667 225.26 92.56C225.253 92.26 225.393 92.0633 225.68 91.97C226.747 91.6367 227.533 91.9233 228.04 92.83C228.193 93.11 228.427 93.2133 228.74 93.14C229.873 92.86 230.827 92.3867 231.6 91.72C231.873 91.4733 231.867 91.2367 231.58 91.01C230.66 90.27 229.73 90.1367 228.79 90.61C228.576 90.7167 228.342 90.7786 228.103 90.7918C227.864 90.8051 227.625 90.7693 227.401 90.6868C227.177 90.6044 226.973 90.4769 226.801 90.3123C226.628 90.1477 226.492 89.9495 226.4 89.73C225.64 87.93 225.77 86.5733 226.79 85.66C227.577 84.9467 228.317 85.0767 229.01 86.05C229.053 86.1112 229.11 86.1614 229.176 86.1968C229.242 86.2321 229.315 86.2515 229.39 86.2534C229.465 86.2554 229.539 86.2398 229.607 86.208C229.674 86.1761 229.734 86.1289 229.78 86.07L230.88 84.67C231.133 84.3433 231.447 84.2733 231.82 84.46ZM134.66 72.77C129.07 77.18 124.74 82.39 122.49 88.95C122.157 89.93 122.41 90.1167 123.25 89.51C127.52 86.42 131.4 82.98 133.18 77.92C133.75 76.3 134.57 74.89 135.39 73.39C136.163 71.9833 135.92 71.7767 134.66 72.77ZM343.08 76.22C342.993 75.5867 343.313 75.1233 344.04 74.83C344.433 74.67 344.553 74.3933 344.4 74L344.22 73.53C344.187 73.4445 344.136 73.367 344.071 73.3023C344.006 73.2376 343.928 73.1872 343.842 73.1543C343.757 73.1213 343.665 73.1066 343.573 73.111C343.482 73.1155 343.392 73.139 343.31 73.18C342.363 73.6467 341.543 74.3067 340.85 75.16C340.563 75.5067 340.507 75.8867 340.68 76.3C341.627 78.6267 342.973 79.17 344.72 77.93C344.987 77.7367 345.217 77.5133 345.41 77.26C345.445 77.2115 345.464 77.1533 345.465 77.0934C345.466 77.0335 345.448 76.9749 345.414 76.9256C345.38 76.8763 345.331 76.8387 345.275 76.818C345.219 76.7973 345.158 76.7945 345.1 76.81C344.673 76.93 344.227 76.9567 343.76 76.89C343.59 76.8662 343.432 76.7882 343.309 76.6675C343.187 76.5469 343.106 76.3899 343.08 76.22ZM338.45 75.86L337.14 76.84C336.793 77.1 336.837 77.22 337.27 77.2C338.07 77.16 338.587 76.8033 338.82 76.13C338.987 75.6367 338.863 75.5467 338.45 75.86ZM83.48 83.1C83.4089 83.0293 83.3536 82.9442 83.3177 82.8506C83.2819 82.7569 83.2662 82.6567 83.2719 82.5565C83.2776 82.4564 83.3044 82.3586 83.3506 82.2695C83.3968 82.1805 83.4614 82.1023 83.54 82.04C85.1734 80.7467 86.7034 79.4767 88.13 78.23C90.1234 76.4833 89.93 76.1967 87.55 77.37C82.49 79.88 80.6 83.83 77.66 88.27C77.0067 89.25 77.2234 89.5033 78.31 89.03C81.55 87.62 87.62 83.91 88.6 80.37C88.74 79.8433 88.6 79.7533 88.18 80.1L84.25 83.31C84.1646 83.3793 84.0574 83.4155 83.9487 83.4118C83.84 83.4081 83.7373 83.3648 83.66 83.29L83.48 83.1ZM172.9 79.76C173.013 79.4067 173.257 79.2367 173.63 79.25C177.243 79.41 180.72 79.9533 184.06 80.88C188.64 82.16 192.86 82.17 197.54 81.72C199.3 81.5533 199.383 81.09 197.79 80.33C194.93 78.97 191.917 78.1267 188.75 77.8C184.23 77.3267 179.723 76.9133 175.23 76.56C172.323 76.3267 170.073 76.51 168.48 77.11C161.84 79.63 156.04 83.82 150.83 89.2C147.543 92.6 144.317 95.71 141.15 98.53C139.563 99.9367 139.807 100.41 141.88 99.95C147.293 98.75 152.627 97.3867 157.88 95.86C163.093 94.3467 167.957 92.1467 172.47 89.26C173.103 88.8533 173.043 88.6333 172.29 88.6C169.777 88.5067 167.233 88.1467 164.66 87.52C162.89 87.09 161.03 87.31 159.24 87.54C159.188 87.5471 159.136 87.5431 159.085 87.5283C159.035 87.5136 158.989 87.4883 158.949 87.4543C158.909 87.4203 158.877 87.3783 158.855 87.331C158.833 87.2837 158.821 87.2323 158.82 87.18L158.81 86.88C158.803 86.5 158.983 86.2633 159.35 86.17C161.33 85.6367 163.267 85.6267 165.16 86.14C169.2 87.25 173.61 87.49 177.7 86.11C180.44 85.1833 183.287 84.5133 186.24 84.1C187.9 83.8733 187.93 83.5133 186.33 83.02C182.11 81.7267 177.697 80.89 173.09 80.51C173.04 80.5049 172.991 80.4887 172.948 80.4625C172.905 80.4364 172.868 80.401 172.841 80.3589C172.813 80.3167 172.795 80.269 172.788 80.219C172.781 80.169 172.785 80.1181 172.8 80.07L172.9 79.76ZM270.48 80.96C270.431 80.9952 270.391 81.0427 270.365 81.0978C270.34 81.1529 270.329 81.2137 270.334 81.2742C270.339 81.3348 270.36 81.393 270.394 81.4431C270.429 81.4932 270.475 81.5335 270.53 81.56L274.75 83.54C274.81 83.5684 274.877 83.5793 274.942 83.5713C275.008 83.5634 275.07 83.5369 275.122 83.495C275.173 83.4531 275.211 83.3975 275.232 83.3347C275.253 83.2718 275.256 83.2043 275.24 83.14L274.21 79.04C274.197 78.9858 274.171 78.9357 274.134 78.8936C274.097 78.8516 274.051 78.819 273.999 78.7984C273.947 78.7779 273.891 78.77 273.836 78.7755C273.78 78.781 273.727 78.7997 273.68 78.83L270.48 80.96ZM234.119 81.7393C234.189 81.7418 234.261 81.7135 234.328 81.656C234.396 81.5985 234.458 81.513 234.512 81.4043C234.566 81.2956 234.611 81.1658 234.643 81.0225C234.675 80.8791 234.694 80.725 234.7 80.5688C234.705 80.4126 234.697 80.2575 234.675 80.1122C234.652 79.967 234.617 79.8345 234.571 79.7223C234.525 79.6101 234.468 79.5204 234.405 79.4584C234.342 79.3964 234.272 79.3632 234.202 79.3607C234.131 79.3582 234.059 79.3865 233.992 79.444C233.924 79.5015 233.862 79.587 233.808 79.6957C233.754 79.8044 233.709 79.9341 233.677 80.0775C233.645 80.2208 233.626 80.375 233.62 80.5312C233.615 80.6874 233.623 80.8425 233.646 80.9878C233.668 81.133 233.703 81.2655 233.749 81.3777C233.795 81.4899 233.852 81.5796 233.915 81.6416C233.979 81.7036 234.048 81.7368 234.119 81.7393ZM323.63 89.31C323.303 89.2833 322.99 89.19 322.69 89.03C321.15 88.1967 320.813 87.02 321.68 85.5C322.347 84.3267 323.283 83.34 324.49 82.54C327.53 80.5133 327.257 79.8433 323.67 80.53C322.417 80.77 321.03 81.3267 319.51 82.2C315.99 84.22 312.607 85.8 309.36 86.94C309.033 87.0533 308.853 87.2833 308.82 87.63C308.44 91.3833 306.333 94.0867 302.5 95.74C297.65 97.84 292.1 99.22 293.35 105.76C293.657 107.367 294.7 108.23 296.48 108.35C301.18 108.66 304.54 111.46 306.9 115.28C308.89 118.52 315.6 123.73 319.52 121.9C323.06 120.25 326.46 117.14 329 114.16C330.8 112.06 329.47 109.54 328.72 107.34C327.92 105.013 327.78 102.453 328.3 99.66C329.2 94.8333 329.72 90.09 329.86 85.43C329.92 83.5 331.45 82.68 333.27 83.4C333.917 83.6467 334.107 83.45 333.84 82.81C333.647 82.3433 333.357 81.95 332.97 81.63C332.723 81.4167 332.45 81.37 332.15 81.49L329.94 82.39C329.72 82.4767 329.533 82.6133 329.38 82.8C328.393 83.9933 327.65 85.3667 327.15 86.92C326.603 88.64 325.43 89.4367 323.63 89.31ZM242.431 83.6499C242.694 83.6531 242.948 83.4939 243.137 83.2074C243.326 82.9209 243.435 82.5305 243.44 82.1221C243.442 81.9199 243.419 81.7193 243.372 81.5319C243.324 81.3445 243.253 81.1738 243.163 81.0297C243.073 80.8856 242.965 80.7708 242.846 80.692C242.727 80.6131 242.599 80.5717 242.469 80.5701C242.206 80.5669 241.953 80.7261 241.763 81.0126C241.574 81.2991 241.465 81.6895 241.46 82.0979C241.458 82.3001 241.481 82.5007 241.528 82.6881C241.576 82.8755 241.647 83.0462 241.737 83.1903C241.827 83.3344 241.935 83.4492 242.054 83.528C242.173 83.6069 242.301 83.6483 242.431 83.6499ZM337.88 83.36C344.4 84.74 340.31 91.1 335.56 88.63C334.667 88.1633 334.343 86.8633 334.59 84.73C334.596 84.6712 334.587 84.6117 334.564 84.5574C334.54 84.5031 334.503 84.456 334.455 84.4206C334.408 84.3853 334.352 84.3629 334.293 84.3558C334.234 84.3487 334.175 84.357 334.12 84.38L332.9 84.91C332.593 85.0433 332.427 85.2767 332.4 85.61C332.013 90.7367 331.34 96.1867 330.38 101.96C329.85 105.15 330.73 107.49 331.68 110.36C332.153 111.793 332.047 113.417 331.36 115.23C331.22 115.597 331.223 115.96 331.37 116.32C333.36 121.41 333.66 124.5 339.56 126.38C342.31 127.26 345.38 125.86 347.43 124.17C350.39 121.723 353.933 120.813 358.06 121.44C364.69 122.45 368.77 118.81 373.26 114.73C373.56 114.45 373.769 114.084 373.86 113.68C374.507 110.647 374.107 107.653 372.66 104.7C370.987 101.293 369.613 97.74 368.54 94.04C368.45 93.729 368.262 93.456 368.004 93.2627C367.745 93.0695 367.432 92.9667 367.11 92.97C362.117 93.0033 357.28 91.6667 352.6 88.96C348.42 86.54 344.22 84.26 340 82.12C339.547 81.8867 339.083 81.8633 338.61 82.05C338.223 82.2033 337.907 82.4533 337.66 82.8C337.447 83.1 337.52 83.2867 337.88 83.36ZM242.6 91.79C242.453 90.8833 242.177 90.8433 241.77 91.67C241.57 92.0833 241.55 92.5133 241.71 92.96C242.177 94.2667 242.687 95.6167 243.24 97.01C245.34 102.29 246.25 108.49 251.07 112.23C252.483 113.323 253.483 114.667 254.07 116.26C255.94 121.34 262.41 123.98 267.45 124.12C269.063 124.167 270.65 123.71 272.21 122.75C278.71 118.75 269.88 110.72 273.83 106.17C275.69 104.02 277.69 102.65 279.02 99.9C281.62 94.56 281.31 87.98 275.37 85.29C273.07 84.25 270.803 83.25 268.57 82.29C268.051 82.0695 267.475 82.0239 266.93 82.16L246.04 87.37C245.87 87.4124 245.715 87.5038 245.596 87.6328C245.477 87.7619 245.398 87.923 245.369 88.0963C245.341 88.2696 245.363 88.4475 245.435 88.6081C245.506 88.7686 245.622 88.9049 245.77 89C246.69 89.5933 247.35 90.3533 247.75 91.28C247.923 91.6933 247.9 92.0933 247.68 92.48C247.03 93.66 245.86 95.41 244.28 94.59C243.38 94.1167 242.82 93.1833 242.6 91.79ZM173.57 100.7C173.541 100.687 173.515 100.668 173.495 100.643C173.475 100.619 173.46 100.59 173.452 100.559C173.445 100.529 173.444 100.496 173.451 100.465C173.457 100.434 173.471 100.405 173.49 100.38C176.41 96.8067 178.883 92.72 180.91 88.12C181.43 86.94 181.113 86.6333 179.96 87.2C176.08 89.1 172.117 91.1467 168.07 93.34C167.03 93.9 166.21 94.6033 165.61 95.45C163.317 98.6767 160.643 101.22 157.59 103.08C157.19 103.32 156.923 103.217 156.79 102.77L156.71 102.47C156.688 102.389 156.691 102.304 156.72 102.227C156.749 102.149 156.801 102.084 156.87 102.04C159.397 100.4 161.57 98.5267 163.39 96.42C163.997 95.72 163.86 95.5133 162.98 95.8C157.127 97.68 151.32 99.2767 145.56 100.59C144.807 100.763 144.78 101.017 145.48 101.35C153.36 105.05 160.91 108 169.8 107.97C174.51 107.95 178.12 105.76 182.22 103.8C185.97 102.01 188.8 99.15 191.05 95.86C193.61 92.12 196.173 88.13 198.74 83.89C198.791 83.8038 198.818 83.7052 198.817 83.6048C198.817 83.5045 198.789 83.4063 198.736 83.3208C198.683 83.2353 198.609 83.1658 198.519 83.1199C198.43 83.0739 198.33 83.0532 198.23 83.06C194.257 83.36 190.307 84.16 186.38 85.46C184.72 86.01 183.47 85.85 182.54 87.72C180.953 90.88 179.36 93.9233 177.76 96.85C176.88 98.4633 175.72 99.7333 174.28 100.66C174.053 100.8 173.817 100.813 173.57 100.7ZM95 87.69C94.9534 87.57 94.9867 87.4833 95.1 87.43L100.73 84.6C102.37 83.78 102.283 83.4933 100.47 83.74C98.4967 84.0067 96.0934 84.3367 93.26 84.73C90.28 85.1367 86.81 86.6833 82.85 89.37C80.97 90.65 79.06 92.7167 77.12 95.57C75.1267 98.49 72.78 101.28 70.08 103.94C68.8934 105.1 69.04 105.3 70.52 104.54C73.26 103.13 75.95 101.95 79.03 101.31C82.7234 100.543 85.7867 99.13 88.22 97.07C91.6134 94.2033 94.97 91.4233 98.29 88.73C98.87 88.2567 99.4234 87.7133 99.95 87.1C101.11 85.7533 100.877 85.44 99.25 86.16L95.26 87.94C95.2427 87.9477 95.2248 87.9537 95.2073 87.9574C95.1899 87.9611 95.1735 87.9626 95.1592 87.9616C95.1449 87.9607 95.1331 87.9574 95.1246 87.9519C95.1161 87.9464 95.1111 87.939 95.11 87.93L95 87.69ZM337.33 85.09L336.65 87.01C336.628 87.071 336.618 87.1359 336.621 87.2007C336.624 87.2656 336.64 87.3291 336.668 87.3877C336.696 87.4464 336.735 87.4988 336.784 87.5422C336.832 87.5855 336.889 87.6187 336.95 87.64L337.29 87.76C337.851 87.9581 338.437 88.0135 338.919 87.9141C339.4 87.8148 339.739 87.5688 339.86 87.23L339.96 86.95C340.021 86.7814 340.026 86.5947 339.975 86.4007C339.924 86.2067 339.818 86.0092 339.663 85.8196C339.508 85.63 339.306 85.452 339.071 85.2959C338.835 85.1398 338.57 85.0086 338.29 84.91L337.95 84.79C337.828 84.7484 337.694 84.7565 337.578 84.8127C337.462 84.8688 337.373 84.9685 337.33 85.09ZM324.53 85.54C324.397 85.26 324.21 85.2167 323.97 85.41C323.37 85.8833 323.04 86.4367 322.98 87.07C322.94 87.4833 323.09 87.8133 323.43 88.06C323.757 88.2933 324.107 88.4 324.48 88.38C324.887 88.3533 325.08 88.1367 325.06 87.73C325.027 86.95 324.85 86.22 324.53 85.54ZM227.963 89.0558C228.069 89.0471 228.172 89.006 228.264 88.9348C228.357 88.8637 228.438 88.7639 228.504 88.6411C228.569 88.5183 228.617 88.375 228.645 88.2193C228.673 88.0635 228.681 87.8985 228.667 87.7336C228.64 87.4006 228.529 87.0881 228.358 86.8651C228.187 86.642 227.971 86.5266 227.757 86.5442C227.651 86.5529 227.548 86.594 227.456 86.6652C227.363 86.7363 227.282 86.8361 227.216 86.9589C227.151 87.0817 227.103 87.225 227.075 87.3807C227.047 87.5365 227.039 87.7015 227.053 87.8664C227.08 88.1994 227.191 88.5119 227.362 88.7349C227.533 88.958 227.749 89.0734 227.963 89.0558ZM243.659 89.2922C243.737 89.0583 243.597 88.7621 243.27 88.4688C242.943 88.1755 242.456 87.909 241.915 87.7281C241.374 87.5472 240.825 87.4666 240.387 87.504C239.949 87.5415 239.659 87.6939 239.581 87.9278C239.503 88.1617 239.643 88.4579 239.97 88.7512C240.297 89.0445 240.784 89.311 241.325 89.4919C241.866 89.6728 242.415 89.7534 242.853 89.716C243.291 89.6785 243.581 89.5261 243.659 89.2922ZM291.58 105.44C289.32 94.03 304.28 97.58 306.84 88.43C306.98 87.9233 306.797 87.74 306.29 87.88C297.383 90.3467 289.087 90.4567 281.4 88.21C280.787 88.03 280.637 88.2167 280.95 88.77C281.79 90.26 282.24 92.03 282.13 93.76C281.783 98.9867 279.69 103.173 275.85 106.32C274.297 107.593 273.78 109.087 274.3 110.8C275.26 113.95 276.65 117.39 275.75 120.7C275.738 120.74 275.737 120.782 275.748 120.822C275.758 120.862 275.78 120.898 275.81 120.926C275.841 120.954 275.878 120.973 275.919 120.981C275.959 120.989 276.001 120.985 276.04 120.97C284.58 117.99 292.64 113.87 301.7 113.62C303.28 113.573 303.467 113.043 302.26 112.03C300.74 110.743 298.987 110.02 297 109.86C294.34 109.65 292.12 108.17 291.58 105.44ZM244.73 92.03L244.42 92.21C244.06 92.4233 243.993 92.7033 244.22 93.05C244.573 93.61 245.107 93.86 245.82 93.8C246.253 93.76 246.52 93.53 246.62 93.11C246.947 91.7367 246.44 90.67 245.1 89.91C245.027 89.8633 244.953 89.8467 244.88 89.86C244.787 89.8733 244.703 89.91 244.63 89.97C244.582 90.0127 244.543 90.0647 244.515 90.1229C244.487 90.1811 244.471 90.2442 244.469 90.3086C244.466 90.373 244.476 90.4373 244.499 90.4977C244.521 90.5581 244.556 90.6133 244.6 90.66C244.86 90.94 244.983 91.2633 244.97 91.63C244.963 91.8033 244.883 91.9367 244.73 92.03ZM234.27 92.22C233.71 92.4733 233.507 92.8433 233.66 93.33C233.867 93.9967 234.143 94.03 234.49 93.43L236.22 90.44C236.353 90.2067 236.287 90.0933 236.02 90.1C234.72 90.12 233.553 90.3833 232.52 90.89C232.489 90.9039 232.462 90.9239 232.439 90.9487C232.416 90.9735 232.399 91.0027 232.388 91.0344C232.376 91.0662 232.372 91.0999 232.374 91.1335C232.376 91.1671 232.385 91.1999 232.4 91.23L232.51 91.48C232.523 91.52 232.55 91.5267 232.59 91.5C233.077 91.1867 233.603 91.0933 234.17 91.22C235.197 91.4533 235.23 91.7867 234.27 92.22ZM234.63 100.22C233.07 99.59 232.45 97.88 233 96.33C233.115 95.9992 233.135 95.6424 233.058 95.3007C232.98 94.9589 232.808 94.6462 232.562 94.3985C232.315 94.1508 232.004 93.9782 231.664 93.9006C231.324 93.823 230.969 93.8436 230.64 93.96C225.36 95.81 221.88 100.78 216.1 101.4C214.527 101.573 212.94 101.783 211.34 102.03C211.129 102.064 210.929 102.144 210.751 102.263C210.573 102.382 210.423 102.538 210.31 102.72C208.923 104.973 208.04 107.2 207.66 109.4C207.427 110.727 207.693 112.107 208.46 113.54C208.617 113.828 208.871 114.051 209.176 114.17C209.482 114.289 209.82 114.296 210.13 114.19C211.89 113.59 213.437 114.083 214.77 115.67C216.503 117.737 218.387 119.747 220.42 121.7C225 126.1 230.587 128.257 237.18 128.17C242.92 128.1 247.49 125.07 249.16 119.47C249.76 117.44 250.47 115.44 249.16 113.49C246.63 109.74 244.3 105.68 243.16 101.29C242.693 99.5033 242.09 97.8667 241.35 96.38C241.057 95.7867 240.573 95.5733 239.9 95.74C239.699 95.7864 239.492 95.7842 239.295 95.7337C239.098 95.6832 238.918 95.5858 238.77 95.45C238.483 95.1833 238.333 94.8633 238.32 94.49C238.307 94.0567 238.507 93.77 238.92 93.63L239.59 93.4C239.963 93.2733 240.087 93.0233 239.96 92.65L239.48 91.24C239.113 90.14 238.777 90.15 238.47 91.27L237.35 95.36C237.263 95.6667 237.267 95.9733 237.36 96.28C237.52 96.8 237.573 97.3433 237.52 97.91C237.467 98.39 237.207 98.6833 236.74 98.79C236.087 98.95 235.61 99.34 235.31 99.96C235.163 100.26 234.937 100.347 234.63 100.22ZM199.66 99.15C197.17 97.46 196.34 94.22 196.26 91.33C196.24 90.63 196.047 90.5767 195.68 91.17C193.453 94.8167 190.98 98.2033 188.26 101.33C187.88 101.763 187.973 101.917 188.54 101.79C192.187 100.977 195.803 100.433 199.39 100.16C200.443 100.08 200.533 99.7433 199.66 99.15ZM234.999 99.0895C235.177 99.0848 235.343 98.9224 235.461 98.6379C235.58 98.3534 235.64 97.9702 235.63 97.5725C235.625 97.3756 235.602 97.181 235.564 97C235.525 96.8189 235.472 96.6549 235.406 96.5173C235.34 96.3796 235.263 96.2711 235.18 96.1979C235.097 96.1247 235.009 96.0882 234.921 96.0905C234.743 96.0952 234.577 96.2576 234.459 96.5421C234.34 96.8266 234.28 97.2098 234.29 97.6075C234.295 97.8044 234.318 97.999 234.356 98.18C234.395 98.3611 234.448 98.5251 234.514 98.6627C234.58 98.8004 234.657 98.9089 234.74 98.9821C234.823 99.0553 234.911 99.0918 234.999 99.0895ZM161.34 130.76C161.323 130.727 161.313 130.69 161.31 130.653C161.307 130.615 161.312 130.578 161.324 130.543C161.336 130.508 161.356 130.477 161.381 130.45C161.406 130.424 161.436 130.403 161.47 130.39C164.237 129.277 167.15 128.697 170.21 128.65C171.343 128.63 172.347 128.24 173.22 127.48C177.787 123.507 181.983 119.197 185.81 114.55C186.39 113.85 186.24 113.603 185.36 113.81C181.293 114.757 177.437 116.07 173.79 117.75C173.74 117.774 173.684 117.784 173.629 117.78C173.573 117.777 173.519 117.759 173.472 117.729C173.426 117.699 173.387 117.658 173.36 117.609C173.334 117.56 173.32 117.506 173.32 117.45V117.19C173.32 116.817 173.487 116.543 173.82 116.37C177.4 114.57 181.353 113.3 185.68 112.56C188.7 112.05 190.97 110.19 193.48 108.7C197.987 106.033 202.597 104.073 207.31 102.82C207.81 102.687 207.813 102.537 207.32 102.37C201.99 100.51 194.94 101.51 188.79 103.07C184.62 104.12 180.99 106.12 177.12 107.93C169.53 111.48 167.05 119.04 163.14 125.75C161.08 129.283 158.957 132.727 156.77 136.08C155.99 137.273 156.243 137.557 157.53 136.93C162.097 134.69 165.98 132.58 169.18 130.6C170.18 129.98 170.093 129.733 168.92 129.86C166.867 130.08 164.667 130.583 162.32 131.37C162.169 131.421 162.005 131.418 161.856 131.361C161.708 131.305 161.586 131.198 161.51 131.06L161.34 130.76ZM187.54 123.47C186.133 124.123 185.987 123.91 187.1 122.83C188.38 121.583 189.473 120.213 190.38 118.72C192.78 114.79 194.72 112.27 197.22 109.16C197.96 108.24 197.81 108.053 196.77 108.6C190.637 111.827 185.467 116.44 181.26 122.44C180.4 123.67 180.64 124.99 179.9 126.23C177.62 130.057 174.64 133.453 170.96 136.42C170.89 136.477 170.807 136.517 170.719 136.537C170.63 136.556 170.539 136.556 170.451 136.534C170.363 136.513 170.281 136.472 170.211 136.414C170.142 136.356 170.087 136.283 170.05 136.2L169.94 135.97C169.922 135.926 169.918 135.878 169.929 135.833C169.94 135.788 169.965 135.748 170 135.72C173.327 132.867 176.363 129.373 179.11 125.24C179.217 125.087 179.253 124.92 179.22 124.74C179.133 124.34 178.947 124.287 178.66 124.58C172.12 131.21 164.54 135.52 156.01 139.11C155.283 139.417 155.31 139.603 156.09 139.67C167.363 140.637 177.563 138.393 186.69 132.94C191.763 129.913 196.07 125.593 199.61 119.98C202.7 115.07 205.72 110.21 207.54 104.59C207.557 104.534 207.559 104.475 207.545 104.419C207.531 104.362 207.502 104.311 207.46 104.27C207.419 104.228 207.368 104.199 207.311 104.185C207.255 104.171 207.196 104.173 207.14 104.19C204.52 105.01 201.53 105.87 199.67 108.11C196.21 112.277 193.243 116.373 190.77 120.4C190.06 121.55 188.76 122.9 187.54 123.47ZM262.79 144.01C262.711 143.918 262.67 143.799 262.675 143.677C262.681 143.554 262.732 143.438 262.82 143.35C264.54 141.563 266.453 140.43 268.56 139.95C273.49 138.83 278.11 137.58 281.7 134.18C285.2 130.867 288.873 127.6 292.72 124.38C293.8 123.473 293.67 123.23 292.33 123.65C290.01 124.37 287.463 125.03 284.69 125.63C281.43 126.35 278.46 127.58 275.42 128.86C275.352 128.889 275.278 128.901 275.204 128.896C275.13 128.89 275.059 128.866 274.996 128.827C274.933 128.788 274.88 128.734 274.843 128.67C274.805 128.606 274.784 128.534 274.78 128.46L274.76 128.05C274.748 127.863 274.791 127.677 274.883 127.515C274.976 127.353 275.114 127.222 275.28 127.14C279.35 125.07 283.88 123.98 288.31 123.11C293.69 122.05 298.65 119.53 303.1 116.37C304.553 115.33 304.39 114.873 302.61 115C298.97 115.26 295.35 115.65 291.94 116.89C286.167 118.977 280.32 121.233 274.4 123.66C271.547 124.827 269.233 126.437 267.46 128.49C257.49 140.03 254.58 154.57 249.23 168.17C249.037 168.65 249.16 168.75 249.6 168.47C255.73 164.59 259.6 160.67 264.59 156.36C270.95 150.87 275.45 145.14 279.93 138.49C280.21 138.063 280.11 137.937 279.63 138.11C275.783 139.49 271.907 140.703 268 141.75C266.827 142.063 265.317 142.927 263.47 144.34C263.402 144.389 263.319 144.41 263.238 144.401C263.156 144.392 263.082 144.352 263.03 144.29L262.79 144.01ZM242.96 148.09C243.16 146.65 243.54 145.43 243.28 143.94C242.753 140.92 242.317 138.083 241.97 135.43C241.877 134.703 241.643 134.653 241.27 135.28C237.93 140.85 235.46 145.99 233.54 152.52C232.213 157.053 231.073 161.54 230.12 165.98C229.88 167.1 230.17 167.26 230.99 166.46C234.91 162.68 239.11 158.567 243.59 154.12C249.13 148.62 255.2 140.38 254.51 132.08C254.163 127.9 253.817 123.603 253.47 119.19C253.363 117.87 252.807 116.597 251.8 115.37C251.447 114.93 251.323 114.99 251.43 115.55C251.83 117.6 250.69 119.82 250.06 121.74C249.953 122.047 249.95 122.353 250.05 122.66C251.157 126.12 251.687 129.883 251.64 133.95C251.64 134.045 251.621 134.14 251.584 134.228C251.547 134.316 251.494 134.396 251.426 134.463C251.358 134.53 251.277 134.582 251.189 134.618C251.1 134.654 251.005 134.671 250.91 134.67L250.58 134.66C250.477 134.66 250.377 134.618 250.304 134.543C250.231 134.468 250.19 134.366 250.19 134.26C250.21 131.18 249.897 127.933 249.25 124.52C249.19 124.207 249.03 124.143 248.77 124.33C246.99 125.583 245.79 126.983 245.17 128.53C243.52 132.62 242.91 136.71 244.16 141.01C244.82 143.277 244.81 145.663 244.13 148.17C244.07 148.403 243.923 148.527 243.69 148.54L243.41 148.57C243.063 148.597 242.913 148.437 242.96 148.09ZM320.55 123.69C320.33 123.79 320.327 123.903 320.54 124.03C322.99 125.47 325.75 126.12 328.17 127.56C334.663 131.433 338.19 137.31 338.75 145.19C338.763 145.31 338.83 145.367 338.95 145.36L339.2 145.35C339.203 145.35 339.205 145.348 339.207 145.344C339.209 145.34 339.21 145.335 339.21 145.33C338.59 134.5 345.89 126.21 356.39 123.83C357.05 123.683 357.057 123.503 356.41 123.29C352.91 122.14 350.31 124.87 347.58 126.58C342.5 129.74 336.55 128.02 332.95 123.56C331.48 121.75 331.4 119.41 330.09 117.44C330.052 117.385 330.003 117.339 329.945 117.306C329.887 117.272 329.822 117.253 329.756 117.249C329.69 117.245 329.624 117.257 329.564 117.283C329.504 117.309 329.451 117.349 329.41 117.4C327.45 119.773 324.497 121.87 320.55 123.69ZM274.15 163.37C278.57 163.57 282.8 161.8 286.93 160.19C289.13 159.337 291.047 158.15 292.68 156.63C300.7 149.21 303.51 140.2 304.51 129.48C304.863 125.653 305.207 121.903 305.54 118.23C305.549 118.118 305.528 118.005 305.479 117.903C305.43 117.802 305.354 117.715 305.26 117.653C305.166 117.591 305.057 117.555 304.945 117.549C304.832 117.543 304.72 117.568 304.62 117.62C299.66 120.28 295.04 124.6 290.77 128.44C290.436 128.743 290.167 129.112 289.982 129.523C289.796 129.934 289.697 130.379 289.69 130.83C289.643 135.423 289.563 140.073 289.45 144.78C289.397 146.773 288.873 148.677 287.88 150.49C287.707 150.803 287.457 150.9 287.13 150.78L286.84 150.67C286.806 150.658 286.775 150.639 286.749 150.615C286.723 150.59 286.702 150.561 286.687 150.529C286.672 150.496 286.664 150.461 286.662 150.425C286.661 150.389 286.667 150.353 286.68 150.32C288.64 144.62 288.03 137.81 288.21 131.92C288.237 131.033 287.97 130.933 287.41 131.62C283.583 136.293 279.953 141.11 276.52 146.07C275.887 146.977 275.487 147.937 275.32 148.95C274.593 153.277 273.183 157.367 271.09 161.22C270.894 161.585 270.596 161.888 270.23 162.09C269.877 162.29 269.537 162.263 269.21 162.01C269.057 161.883 269.03 161.733 269.13 161.56C271.077 158.307 272.503 154.857 273.41 151.21C273.683 150.117 273.47 150.01 272.77 150.89C270.46 153.77 266.95 156.51 265 158.31C262.013 161.077 258.847 163.863 255.5 166.67C255.033 167.057 255.097 167.187 255.69 167.06C256.717 166.84 257.773 166.74 258.86 166.76C263.56 166.847 268.093 166.56 272.46 165.9C273.487 165.747 273.85 165.16 273.55 164.14C273.383 163.6 273.583 163.343 274.15 163.37ZM320.85 125.72C316.85 124.2 312.97 122.74 309.24 120.68C308.86 120.473 308.703 120.58 308.77 121L309.87 128.27C309.95 128.783 310.163 128.847 310.51 128.46C311.817 126.993 313.3 126.603 314.96 127.29C315.913 127.69 316.893 127.763 317.9 127.51C318.927 127.243 319.893 126.993 320.8 126.76C321.92 126.473 321.937 126.127 320.85 125.72ZM303.5 142.43C301.82 148.24 298.23 153.2 293.88 157.39C293.34 157.903 293.423 158.043 294.13 157.81C299.05 156.15 304.76 154.27 310 155.35C312.467 155.863 314.95 156.173 317.45 156.28C317.803 156.3 317.863 156.177 317.63 155.91C313.34 151 310.42 144.86 309.47 137.97C308.697 132.35 308.013 127.153 307.42 122.38C307.398 122.222 307.317 122.078 307.194 121.978C307.072 121.878 306.917 121.829 306.76 121.84L306.45 121.86C306.383 121.867 306.35 121.903 306.35 121.97C306.337 129.083 305.387 135.903 303.5 142.43ZM363.89 124.35C365.803 125.603 366.97 125.47 367.39 123.95C367.41 123.878 367.411 123.803 367.394 123.731C367.376 123.659 367.341 123.592 367.291 123.537C367.241 123.483 367.178 123.441 367.108 123.417C367.038 123.393 366.963 123.387 366.89 123.4C365.963 123.56 365.073 123.583 364.22 123.47C362.807 123.283 362.697 123.577 363.89 124.35ZM349.38 135.15C349.469 135.253 349.522 135.382 349.529 135.518C349.536 135.654 349.498 135.788 349.42 135.9C347.733 138.433 346.94 140.807 347.04 143.02C347.1 144.453 346.89 145.77 346.41 146.97C345.83 148.423 345.047 149.84 344.06 151.22C344.033 151.253 344.037 151.283 344.07 151.31L344.29 151.48C344.343 151.521 344.411 151.54 344.478 151.533C344.545 151.526 344.607 151.492 344.65 151.44C347.377 148.147 350.507 145.313 354.04 142.94C354.18 142.847 354.287 142.873 354.36 143.02L354.49 143.29C354.65 143.617 354.593 143.903 354.32 144.15C349.513 148.403 345.277 152.503 341.61 156.45C340.377 157.783 340.62 158.16 342.34 157.58C344.647 156.793 346.833 155.627 348.9 154.08C357.96 147.273 363.227 138.403 364.7 127.47C364.747 127.13 364.657 126.827 364.43 126.56C363.17 125.067 361.63 124.603 359.81 125.17C355.17 126.62 348.58 128.29 345.42 131.74C342.973 134.42 341.56 137.057 341.18 139.65C340.727 142.777 340.603 146.177 340.81 149.85C340.93 152.043 340.25 154.273 338.77 156.54C338.663 156.707 338.693 156.84 338.86 156.94L339.14 157.11C339.207 157.15 339.257 157.137 339.29 157.07C341.017 153.97 342.773 150.837 344.56 147.67C345.61 145.81 345.51 144.32 345.57 142.28C345.65 139.487 346.763 137.033 348.91 134.92C349.01 134.82 349.103 134.823 349.19 134.93L349.38 135.15ZM230.13 132.62C230.13 132.493 230.177 132.39 230.27 132.31L233.26 129.87C233.633 129.563 233.583 129.36 233.11 129.26C230.777 128.767 228.46 128.05 226.16 127.11C226.036 127.059 225.898 127.057 225.773 127.106C225.648 127.154 225.547 127.249 225.49 127.37C223.303 132.063 222.403 136.733 222.79 141.38C223.41 148.85 225.62 154.58 228.93 161C229.37 161.86 229.697 161.817 229.91 160.87C231.17 155.243 232.863 149.577 234.99 143.87C235.008 143.821 235.011 143.768 234.999 143.718C234.988 143.667 234.962 143.62 234.925 143.583C234.887 143.546 234.84 143.519 234.788 143.506C234.736 143.493 234.681 143.495 234.63 143.51C232.78 144.16 229.54 148.74 228.45 150.3C228.433 150.327 228.409 150.351 228.382 150.369C228.355 150.387 228.324 150.399 228.291 150.405C228.258 150.41 228.224 150.409 228.192 150.401C228.159 150.394 228.128 150.38 228.1 150.36L227.86 150.19C227.567 149.983 227.513 149.723 227.7 149.41C229.62 146.143 232.143 143.583 235.27 141.73C236.11 141.23 236.75 140.587 237.19 139.8C239.13 136.353 241.093 132.73 243.08 128.93C243.393 128.337 243.243 128.18 242.63 128.46C240.05 129.66 236.73 128.96 234.74 130.54C233.273 131.707 231.883 132.677 230.57 133.45C230.29 133.617 230.147 133.537 230.14 133.21L230.13 132.62ZM319.42 140.39C319.575 140.268 319.771 140.21 319.968 140.226C320.164 140.243 320.348 140.334 320.48 140.48C323.08 143.4 325.79 146.27 328.19 149.48C330.177 152.147 332.33 154.69 334.65 157.11C335.07 157.543 335.253 157.457 335.2 156.85C334.86 152.91 334.84 149.17 331.88 146.13C330.413 144.623 329.493 142.927 329.12 141.04C328.98 140.307 329.253 140.083 329.94 140.37C330.627 140.65 331.003 141.15 331.07 141.87C331.103 142.27 331.247 142.623 331.5 142.93C333.227 144.983 334.517 146.937 335.37 148.79C336.197 150.59 336.537 152.78 336.39 155.36C336.39 155.4 336.41 155.42 336.45 155.42L336.94 155.44C337.067 155.447 337.137 155.387 337.15 155.26C337.69 149.427 337.287 144.28 335.94 139.82C334.12 133.787 330.17 130.01 324.09 128.49C321.99 127.963 319.803 128.173 317.53 129.12C317.183 129.267 316.82 129.317 316.44 129.27C315.627 129.177 314.877 128.903 314.19 128.45C314.005 128.33 313.788 128.268 313.569 128.274C313.349 128.279 313.137 128.351 312.96 128.48C310.43 130.31 310.75 131.81 310.9 134.54C311.33 142.3 314.88 154.23 323.31 156.94C327.15 158.173 331.007 159.473 334.88 160.84C335.027 160.893 335.133 160.85 335.2 160.71L335.41 160.27C335.517 160.063 335.463 159.907 335.25 159.8C334.35 159.333 333.637 158.78 333.11 158.14C328.63 152.66 323.967 147.003 319.12 141.17C319.084 141.126 319.057 141.075 319.04 141.02C319.024 140.965 319.019 140.908 319.026 140.852C319.032 140.796 319.05 140.742 319.079 140.693C319.107 140.645 319.145 140.603 319.19 140.57L319.42 140.39ZM364.28 155.95C364.4 156.31 364.29 156.573 363.95 156.74C360.197 158.58 356.467 160.177 352.76 161.53C350.27 162.44 347.72 162.21 345.23 162.81C343.29 163.27 343.287 163.747 345.22 164.24C350.227 165.507 355.537 166.02 361.15 165.78C361.339 165.771 361.527 165.823 361.686 165.927C361.846 166.031 361.969 166.182 362.04 166.36L362.17 166.7C362.188 166.745 362.194 166.793 362.189 166.841C362.184 166.889 362.168 166.935 362.142 166.975C362.115 167.015 362.079 167.049 362.037 167.072C361.995 167.096 361.948 167.109 361.9 167.11C356.64 167.337 351.493 167.01 346.46 166.13C345.1 165.9 343.9 165.25 342.62 164.8C341.52 164.413 341.38 164.633 342.2 165.46C344.84 168.12 347.47 171.38 350.79 173.1C355.73 175.64 362.27 177.95 367.6 176.26C372.84 174.6 377.1 171.21 380.95 167.27C383.997 164.15 387.567 161.91 391.66 160.55C392.287 160.337 392.29 160.12 391.67 159.9C385.44 157.69 379.58 155.1 373.75 152.28C367.31 149.16 361.3 149.71 355.01 153.07C351.063 155.17 347.14 157.127 343.24 158.94C342.29 159.38 341.17 159.42 340.17 159.69C339.717 159.81 339.563 160.093 339.71 160.54C340.83 163.98 343.85 161.47 346.12 161.37C349.14 161.237 351.76 160.677 353.98 159.69C357 158.343 360.247 156.927 363.72 155.44C363.763 155.421 363.81 155.411 363.857 155.411C363.904 155.41 363.951 155.42 363.994 155.439C364.037 155.458 364.076 155.485 364.108 155.52C364.14 155.554 364.165 155.595 364.18 155.64L364.28 155.95ZM326.87 163.45C326.929 163.44 326.985 163.413 327.029 163.372C327.073 163.332 327.105 163.279 327.12 163.221C327.134 163.162 327.132 163.101 327.112 163.044C327.093 162.987 327.057 162.937 327.01 162.9C326.73 162.673 326.413 162.537 326.06 162.49C322.207 161.977 317.923 161.777 313.21 161.89C312.843 161.897 312.693 161.72 312.76 161.36L312.82 161.01C312.849 160.856 312.929 160.717 313.045 160.615C313.161 160.513 313.308 160.455 313.46 160.45C319.247 160.17 324.883 160.653 330.37 161.9C330.537 161.94 330.67 161.89 330.77 161.75C330.89 161.597 330.86 161.48 330.68 161.4C327.207 159.893 324.22 158.94 321.72 158.54C318.133 157.973 314.287 157.387 310.18 156.78C304.05 155.87 298.69 157.69 293.2 160.03C289.49 161.61 286.9 165.31 283.94 168.07C283.367 168.597 283.283 169.197 283.69 169.87C285.62 173.08 289.46 175.21 292.54 177.34C295.57 179.43 299.52 179.12 302.82 177.92C308.7 175.78 314.077 173.473 318.95 171C323.85 168.507 328.623 166.43 333.27 164.77C333.41 164.717 333.523 164.64 333.61 164.54C333.71 164.42 333.753 164.283 333.74 164.13C333.727 163.823 333.567 163.693 333.26 163.74C325.92 164.88 318.707 166.433 311.62 168.4C311.483 168.44 311.336 168.429 311.206 168.371C311.076 168.312 310.971 168.209 310.91 168.08L310.75 167.75C310.732 167.712 310.723 167.67 310.723 167.628C310.723 167.585 310.731 167.543 310.748 167.505C310.765 167.466 310.79 167.431 310.822 167.403C310.853 167.375 310.89 167.353 310.93 167.34C316.19 165.693 321.503 164.397 326.87 163.45ZM336.39 161.96C336.274 162.091 336.185 162.244 336.13 162.41L335.57 164.16C335.494 164.399 335.489 164.655 335.557 164.896C335.625 165.137 335.762 165.353 335.952 165.517C336.141 165.681 336.375 165.786 336.624 165.819C336.872 165.851 337.125 165.81 337.35 165.7L339.19 164.8C339.348 164.723 339.489 164.615 339.603 164.481C339.717 164.348 339.803 164.193 339.854 164.025C339.906 163.857 339.922 163.68 339.903 163.505C339.883 163.331 339.828 163.162 339.74 163.01L338.94 161.62C338.839 161.444 338.697 161.294 338.526 161.183C338.356 161.072 338.161 161.004 337.959 160.983C337.757 160.963 337.552 160.991 337.363 161.065C337.174 161.139 337.005 161.258 336.87 161.41L336.39 161.96ZM286.1 162.97C284.05 163.57 282.38 164.68 280.25 165.03C279.843 165.097 279.77 165.287 280.03 165.6L281.45 167.31C281.743 167.657 282.053 167.67 282.38 167.35L286.35 163.38C286.803 162.92 286.72 162.783 286.1 162.97ZM354.78 190.72C354.759 190.796 354.72 190.866 354.665 190.924C354.61 190.981 354.542 191.024 354.467 191.049C354.392 191.074 354.312 191.079 354.234 191.066C354.156 191.052 354.082 191.019 354.02 190.97C351.953 189.33 350.03 187.663 348.25 185.97C344.8 182.68 342.74 176.98 340.34 172.64C339.913 171.873 339.64 171.923 339.52 172.79C339.48 173.083 339.49 173.367 339.55 173.64C340.577 178.367 341.97 182.687 343.73 186.6C344.263 187.793 344.407 189.08 344.16 190.46C344.12 190.693 344 190.87 343.8 190.99C343.76 191.01 343.717 191.02 343.67 191.02C343.283 190.967 343.037 190.73 342.93 190.31C342.343 187.87 341.477 185.483 340.33 183.15C339.27 180.98 338.92 178.56 338.22 176.2C337.84 174.893 337.6 174.92 337.5 176.28C337.14 181.29 337.81 188.37 340.43 192.84C341.48 194.62 341.97 196.58 343.23 198.23C346.823 202.91 351.453 205.74 357.12 206.72C360.92 207.38 363.66 209.25 366.16 212.21C366.78 212.943 367.103 212.827 367.13 211.86C367.19 209.307 367.497 206.52 368.05 203.5C368.63 200.293 368.47 196.8 367.57 193.02C366.01 186.54 359.72 183.08 354.25 180.07C348.86 177.09 346.58 172.3 342.45 168.16C339.37 165.073 338.807 165.477 340.76 169.37C342.593 173.037 344.55 176.837 346.63 180.77C348.163 183.677 350.803 186.583 354.55 189.49C354.689 189.6 354.792 189.748 354.847 189.915C354.902 190.082 354.907 190.261 354.86 190.43L354.78 190.72ZM330.724 167.708C330.68 167.606 330.597 167.526 330.493 167.485C330.389 167.444 330.274 167.446 330.172 167.49L323.385 170.441C323.335 170.463 323.289 170.495 323.251 170.534C323.212 170.574 323.182 170.621 323.162 170.672C323.142 170.724 323.132 170.778 323.133 170.834C323.134 170.889 323.146 170.943 323.168 170.994L323.176 171.012C323.22 171.114 323.303 171.194 323.407 171.235C323.511 171.276 323.626 171.274 323.728 171.23L330.515 168.279C330.565 168.257 330.611 168.225 330.649 168.186C330.688 168.146 330.718 168.099 330.738 168.048C330.758 167.996 330.768 167.942 330.767 167.886C330.766 167.831 330.754 167.777 330.732 167.726L330.724 167.708ZM323.37 178.39C323.33 178.33 323.333 178.277 323.38 178.23C325.133 176.617 326.59 175.077 327.75 173.61C328.257 172.963 328.1 172.673 327.28 172.74C326.513 172.807 325.5 173.333 324.24 174.32C320.98 176.88 317.777 179.45 314.63 182.03C314.585 182.067 314.531 182.092 314.473 182.103C314.416 182.114 314.357 182.11 314.301 182.093C314.245 182.075 314.195 182.043 314.155 182.001C314.114 181.958 314.085 181.907 314.07 181.85L313.96 181.4C313.921 181.26 313.924 181.111 313.969 180.972C314.013 180.832 314.097 180.706 314.21 180.61L322.34 173.78C323.607 172.707 323.46 172.45 321.9 173.01C314.45 175.67 308.56 176.74 305.62 185.45C304.653 188.31 303.057 191.54 300.83 195.14C299.58 197.17 298.61 199.56 297.67 201.76C297.41 202.373 297.513 202.443 297.98 201.97C300.11 199.79 301.47 199.22 304.44 198.65C305.227 198.503 305.963 198.277 306.65 197.97C316.197 193.697 323.527 187.15 328.64 178.33C329.94 176.09 331.113 173.81 332.16 171.49C332.56 170.61 332.363 170.443 331.57 170.99C331.06 171.35 330.21 172.25 329.91 172.78C328.463 175.287 326.53 177.297 324.11 178.81C323.897 178.943 323.72 178.907 323.58 178.7L323.37 178.39ZM332.41 186.25C332.236 186.177 332.094 186.045 332.008 185.879C331.922 185.712 331.898 185.521 331.94 185.34C332.22 184.12 332.35 182.937 332.33 181.79C332.317 181.197 332.167 181.16 331.88 181.68C330.28 184.58 329.493 187.863 329.52 191.53C329.521 191.616 329.503 191.701 329.468 191.78C329.433 191.858 329.382 191.928 329.317 191.985C329.253 192.042 329.177 192.085 329.094 192.11C329.012 192.134 328.925 192.141 328.84 192.13L328.46 192.08C328.343 192.066 328.235 192.013 328.155 191.928C328.074 191.844 328.027 191.735 328.02 191.62C327.64 184.67 331.59 179.89 333.21 174.73C333.217 174.69 333.203 174.66 333.17 174.64L332.93 174.54C332.854 174.509 332.769 174.509 332.692 174.538C332.614 174.568 332.549 174.625 332.51 174.7C329.603 180.687 325.81 185.963 321.13 190.53C320.817 190.843 320.643 191.22 320.61 191.66C320.483 193.353 319.873 194.87 318.78 196.21C316.03 199.58 315.49 203.84 316.91 207.94C318.337 212.04 319.333 216.267 319.9 220.62C319.98 221.24 319.963 221.847 319.85 222.44C319.743 222.98 319.873 223.047 320.24 222.64C320.813 222.027 321.207 221.32 321.42 220.52C322.16 217.74 323.25 214.63 325.4 212.65C327.41 210.81 329.3 209.12 330.99 206.93C333.783 203.317 335.94 198.677 337.46 193.01C337.733 191.99 337.693 190.933 337.34 189.84C336.13 186.09 334.85 179.12 336.09 175.16C336.337 174.38 336.44 173.787 336.4 173.38C336.233 171.793 335.96 171.773 335.58 173.32C334.633 177.2 334 181.363 333.68 185.81C333.633 186.437 333.32 186.63 332.74 186.39L332.41 186.25ZM333.03 231.97C332.9 235.63 331.41 238.94 329.57 242.04C327.47 245.587 325.42 248.887 323.42 251.94C323.376 252.008 323.355 252.088 323.362 252.169C323.369 252.25 323.403 252.326 323.459 252.384C323.514 252.443 323.588 252.482 323.668 252.494C323.748 252.506 323.83 252.49 323.9 252.45C330.507 248.75 334.64 244.223 336.3 238.87C337.153 236.103 337.7 233.08 337.94 229.8C338.36 224.14 339.52 218.76 340.54 213.31C340.92 211.303 340.88 209.237 340.42 207.11C340.32 206.643 340.113 206.593 339.8 206.96C333.41 214.43 333.37 221.96 333.03 231.97ZM315.25 208.32C314.97 207.42 314.727 207.427 314.52 208.34C313.767 211.607 313.733 214.763 314.42 217.81C314.773 219.363 316.03 221.107 318.19 223.04C318.57 223.387 318.717 223.307 318.63 222.8C317.823 217.853 316.697 213.027 315.25 208.32ZM318.21 238.59C318.166 238.587 318.123 238.571 318.088 238.545C318.052 238.518 318.025 238.482 318.01 238.44C316.223 233.627 314.82 228.817 313.8 224.01C313.58 222.983 313.213 222.93 312.7 223.85C310.35 228.08 309.68 234.94 312.34 239.63C316.42 246.79 310.87 254.19 312.76 261.68C312.88 262.153 313.053 262.173 313.28 261.74C317.38 253.76 321.97 243.1 321.23 234.1C320.87 229.71 318.24 225.09 315.41 221.9C314.89 221.313 314.7 221.407 314.84 222.18C315.593 226.36 316.73 230.553 318.25 234.76C318.643 235.833 318.81 236.977 318.75 238.19C318.743 238.35 318.667 238.467 318.52 238.54C318.42 238.58 318.317 238.597 318.21 238.59ZM359.58 240.94C356.547 235.653 353.117 230.85 349.29 226.53C348.783 225.957 348.643 226.033 348.87 226.76C350.33 231.45 351.17 236.47 353.24 240.86C356.1 246.91 360.55 252.29 363.92 258C364.707 259.34 364.933 259.25 364.6 257.73C363.45 252.56 362.31 245.7 359.58 240.94ZM278.44 241.28C278.28 241.18 278.25 241.05 278.35 240.89C280.47 237.41 283.047 234.767 286.08 232.96C287.887 231.893 287.747 231.483 285.66 231.73C279.42 232.47 273.58 234.3 271.13 240.73C270.78 241.64 270.13 242.9 269.43 243.58C265.523 247.313 261.817 250.67 258.31 253.65C257.79 254.097 257.87 254.297 258.55 254.25C260.177 254.15 261.717 253.62 263.17 252.66C266.037 250.773 269.473 249.463 273.48 248.73C276.127 248.243 278.39 247.007 280.27 245.02C283.457 241.667 286.357 238.01 288.97 234.05C289.577 233.137 289.37 232.877 288.35 233.27C284.82 234.63 281.91 238.11 279.54 241.25C279.438 241.384 279.29 241.476 279.125 241.507C278.961 241.538 278.791 241.507 278.65 241.42L278.44 241.28ZM339.55 250.14C339.677 250.007 339.623 249.883 339.39 249.77C339.323 249.736 339.245 249.729 339.172 249.749C339.098 249.77 339.034 249.816 338.99 249.88C337.677 251.8 336.19 253.517 334.53 255.03C331.04 258.2 328.99 264.25 328.21 268.62C327.24 274.07 325.3 278.86 320.88 282.43C319.007 283.943 319.157 284.183 321.33 283.15C322.917 282.39 324.173 281.307 325.1 279.9C327.253 276.62 329.233 273.087 331.04 269.3C332.68 265.85 335.03 263 336.32 259.29C337.32 256.437 338.353 253.457 339.42 250.35C339.447 250.27 339.49 250.2 339.55 250.14ZM274.46 265.98C274.407 265.92 274.407 265.863 274.46 265.81L281.6 258.36C282.027 257.913 281.93 257.693 281.31 257.7C277.28 257.76 271.39 263.97 269.29 266.71C268.16 268.17 267.78 269.79 267.37 271.54C267.253 272.027 266.983 272.465 266.6 272.79C262.953 275.917 259.257 278.553 255.51 280.7C255.097 280.94 255.127 281.093 255.6 281.16C258.453 281.553 260.9 281.173 262.94 280.02C266.673 277.907 270.52 275.82 274.48 273.76C279.48 271.17 282.16 264.61 283.47 259.36C283.81 258.013 283.537 257.877 282.65 258.95C280.59 261.443 278.13 263.867 275.27 266.22C275.18 266.296 275.063 266.334 274.945 266.324C274.827 266.315 274.717 266.259 274.64 266.17L274.46 265.98ZM348.6 276.8C348.507 282.673 349.47 288.56 351.49 294.46C353.857 301.393 354.57 308.063 353.63 314.47C353.47 315.55 353.637 316.583 354.13 317.57C354.703 318.73 355.04 318.663 355.14 317.37C355.51 312.4 356.62 306.75 356.19 302.23C355.36 293.69 352.86 284.78 349.5 277.36C349.38 277.093 349.227 276.853 349.04 276.64C348.753 276.313 348.607 276.367 348.6 276.8ZM332.17 287.3C326.22 291.79 318.79 295.13 311.17 297.45C308.58 298.23 306.01 299.85 304.38 302.11C302.607 304.583 300.67 306.767 298.57 308.66C297.83 309.333 297.953 309.593 298.94 309.44C304.98 308.52 309.3 304.55 314.33 301.66C317.54 299.82 321.31 299.04 324.21 296.78C327.403 294.3 330.307 291.397 332.92 288.07C334.633 285.883 334.383 285.627 332.17 287.3ZM329.53 349.39C329.71 349.983 329.943 350.003 330.23 349.45C330.43 349.07 330.557 348.677 330.61 348.27C331.543 341.157 331.5 333.483 330.48 325.25C330.027 321.583 329.067 317.497 327.6 312.99C327.087 311.41 326.817 311.45 326.79 313.11C326.71 317.52 325.92 321.98 325.93 326.29C325.943 333.903 327.143 341.603 329.53 349.39ZM305.76 334.71C307.55 332.7 311.57 328.19 311.68 325.91C311.684 325.798 311.657 325.686 311.601 325.589C311.545 325.491 311.463 325.412 311.364 325.358C311.265 325.305 311.153 325.281 311.041 325.288C310.929 325.296 310.821 325.334 310.73 325.4C307.403 327.847 304.303 330.767 301.43 334.16C300.32 335.46 298.75 336.48 297.05 336.8C290.55 338.033 285.28 341.75 281.24 347.95C280.853 348.543 280.963 348.657 281.57 348.29C285.303 346.023 287.95 344.2 289.51 342.82C292.497 340.18 294.887 338.62 296.68 338.14C299.63 337.35 303.6 337.14 305.76 334.71Z" fill="white"/>
<path d="M331.025 48.758L330.965 48.7649C330.516 48.8169 330.193 49.2238 330.245 49.6737L331.146 57.4617C331.198 57.9116 331.605 58.2341 332.055 58.182L332.115 58.1751C332.565 58.1231 332.887 57.7162 332.835 57.2663L331.934 49.4783C331.882 49.0284 331.475 48.7059 331.025 48.758Z" fill="white"/>
<path d="M337.444 51.3451L336.605 51.3949C336.374 51.4086 336.197 51.6075 336.211 51.839L336.832 62.3006C336.846 62.5321 337.045 62.7087 337.276 62.695L338.115 62.6451C338.346 62.6314 338.523 62.4325 338.509 62.201L337.888 51.7394C337.874 51.5079 337.675 51.3313 337.444 51.3451Z" fill="white"/>
<path d="M324.72 54.4368L324.674 54.4759C324.364 54.7424 324.329 55.2097 324.596 55.5195L327.817 59.2647C328.083 59.5745 328.551 59.6097 328.861 59.3432L328.906 59.304C329.216 59.0375 329.251 58.5703 328.984 58.2605L325.763 54.5153C325.497 54.2054 325.029 54.1703 324.72 54.4368Z" fill="white"/>
<path d="M349.78 66.29C349.77 66.3037 349.755 66.3132 349.739 66.3169C349.722 66.3206 349.705 66.3181 349.69 66.31V66.3C349.497 66.1611 349.396 65.8981 349.394 65.5259C349.392 65.1537 349.487 64.6797 349.676 64.1308C349.864 63.582 350.142 62.9691 350.493 62.3273C350.843 61.6854 351.26 61.0271 351.72 60.39L351.94 60.09C352.865 58.8076 353.905 57.688 354.835 56.9759C355.764 56.2638 356.507 56.0172 356.9 56.29L356.91 56.3C356.922 56.3114 356.93 56.3267 356.932 56.3432C356.933 56.3596 356.929 56.3762 356.92 56.39L349.78 66.29Z" fill="white"/>
<path d="M361.36 62.39C357.367 63.9967 354.273 66.4933 352.08 69.88C352.024 69.9662 351.94 70.0305 351.843 70.0615C351.747 70.0926 351.643 70.0885 351.55 70.05L351.31 69.95C350.937 69.79 350.853 69.5333 351.06 69.18C353.327 65.2933 356.667 62.6867 361.08 61.36C361.293 61.2933 361.433 61.3667 361.5 61.58L361.6 61.87C361.68 62.1167 361.6 62.29 361.36 62.39Z" fill="white"/>
<path d="M232.727 69.4456C233.105 72.3593 233.776 74.674 234.225 74.6157C234.674 74.5574 234.732 72.1481 234.353 69.2344C233.975 66.3207 233.304 64.006 232.855 64.0643C232.406 64.1226 232.348 66.5319 232.727 69.4456Z" fill="white"/>
<path d="M250.043 65.7355L249.99 65.7091C249.692 65.5633 249.333 65.6864 249.187 65.9839L245.122 74.2817C244.976 74.5793 245.099 74.9387 245.397 75.0845L245.45 75.1109C245.748 75.2567 246.107 75.1336 246.253 74.836L250.318 66.5383C250.464 66.2407 250.341 65.8813 250.043 65.7355Z" fill="white"/>
<path d="M313.323 69.2864C316.07 69.8004 318.362 69.8651 318.444 69.4308C318.525 68.9965 316.364 68.2277 313.617 67.7137C310.87 67.1996 308.578 67.1349 308.496 67.5692C308.415 68.0035 310.576 68.7723 313.323 69.2864Z" fill="white"/>
<path d="M229.393 71.9872C230.433 73.3678 231.513 74.3091 231.804 74.0897C232.095 73.8704 231.487 72.5734 230.447 71.1928C229.407 69.8122 228.327 68.8709 228.036 69.0903C227.745 69.3096 228.353 70.6066 229.393 71.9872Z" fill="white"/>
<path d="M254.062 69.1587L254.03 69.1347C253.773 68.9428 253.41 68.9952 253.218 69.2517L248.462 75.6095C248.27 75.866 248.322 76.2295 248.578 76.4214L248.611 76.4453C248.867 76.6372 249.23 76.5848 249.422 76.3283L254.179 69.9705C254.371 69.714 254.318 69.3505 254.062 69.1587Z" fill="white"/>
<path d="M230.554 76.4334L221.914 71.0131C221.666 70.8576 221.339 70.9325 221.183 71.1805L221.098 71.316C220.943 71.564 221.018 71.8911 221.266 72.0466L229.906 77.4669C230.154 77.6224 230.481 77.5475 230.637 77.2995L230.722 77.164C230.877 76.916 230.802 76.5889 230.554 76.4334Z" fill="white"/>
<path d="M363.88 75.91C360.65 74.36 355.65 74.62 352.47 75.68C352.418 75.6973 352.362 75.7021 352.307 75.6937C352.253 75.6854 352.201 75.6643 352.156 75.6321C352.111 75.5999 352.074 75.5576 352.049 75.5086C352.024 75.4595 352.01 75.4052 352.01 75.35V75.05C352.007 74.8759 352.06 74.7055 352.161 74.5635C352.262 74.4215 352.405 74.3152 352.57 74.26C355.89 73.1533 359.473 73.1167 363.32 74.15C363.501 74.1988 363.667 74.2921 363.804 74.4213C363.94 74.5505 364.042 74.7116 364.1 74.89L364.31 75.54C364.327 75.5975 364.328 75.6589 364.311 75.7166C364.294 75.7743 364.261 75.8259 364.216 75.8651C364.17 75.9044 364.114 75.9295 364.054 75.9374C363.995 75.9454 363.934 75.9359 363.88 75.91Z" fill="white"/>
<path d="M254.602 73.6383L247.665 79.1172C247.396 79.3294 247.35 79.7193 247.562 79.988L247.587 80.0194C247.799 80.2881 248.189 80.3339 248.458 80.1217L255.395 74.6428C255.664 74.4306 255.71 74.0407 255.498 73.772L255.473 73.7406C255.261 73.4719 254.871 73.4261 254.602 73.6383Z" fill="white"/>
<path d="M315.336 74.6865L309.398 73.6929C309.083 73.6401 308.784 73.8533 308.731 74.1693L308.688 74.4257C308.635 74.7416 308.848 75.0406 309.164 75.0935L315.102 76.0871C315.417 76.1399 315.716 75.9267 315.769 75.6107L315.812 75.3543C315.865 75.0384 315.652 74.7394 315.336 74.6865Z" fill="white"/>
<path d="M225.317 82.8568L217.246 80.9192C217.101 80.8844 216.956 80.9737 216.921 81.1187L216.743 81.8577C216.709 82.0027 216.798 82.1484 216.943 82.1833L225.014 84.1208C225.159 84.1557 225.304 84.0663 225.339 83.9213L225.517 83.1823C225.551 83.0373 225.462 82.8916 225.317 82.8568Z" fill="white"/>
<path d="M218.976 87.4228C220.907 87.6907 222.519 87.5709 222.577 87.1552C222.634 86.7394 221.116 86.1852 219.184 85.9172C217.253 85.6493 215.641 85.7691 215.584 86.1848C215.526 86.6006 217.045 87.1548 218.976 87.4228Z" fill="white"/>
<path d="M260.222 88.6994L250.71 89.0815C250.401 89.0939 250.16 89.3545 250.173 89.6635L250.176 89.7435C250.188 90.0525 250.449 90.2929 250.758 90.2805L260.27 89.8985C260.579 89.8861 260.82 89.6255 260.807 89.3165L260.804 89.2365C260.792 88.9275 260.531 88.687 260.222 88.6994Z" fill="white"/>
<path d="M318.549 89.4404L318.333 89.2623C318.01 88.9953 317.531 89.0414 317.264 89.3653L308.308 100.23C308.041 100.554 308.087 101.033 308.411 101.3L308.627 101.478C308.95 101.745 309.429 101.699 309.696 101.375L318.652 90.5102C318.919 90.1864 318.873 89.7074 318.549 89.4404Z" fill="white"/>
<path d="M214.7 89.9C214.699 89.8637 214.705 89.8275 214.718 89.7936C214.731 89.7597 214.75 89.7287 214.775 89.7026C214.801 89.6764 214.831 89.6556 214.864 89.6415C214.898 89.6273 214.934 89.62 214.97 89.62H215.12C217.009 89.5871 218.823 89.6002 220.167 89.6563C221.511 89.7125 222.277 89.8072 222.3 89.92L222.32 90.8C222.332 90.8567 222.155 90.9162 221.8 90.9751C221.445 91.034 220.918 91.0912 220.252 91.1433C219.585 91.1953 218.791 91.2413 217.915 91.2785C217.039 91.3157 216.099 91.3434 215.15 91.36H215C214.965 91.3613 214.929 91.3557 214.896 91.3433C214.863 91.331 214.832 91.3122 214.806 91.288C214.78 91.2639 214.759 91.2348 214.744 91.2026C214.73 91.1703 214.721 91.1355 214.72 91.1L214.7 89.9Z" fill="white"/>
<path d="M265.524 90.6761L254.042 92.9286C253.755 92.985 253.568 93.2635 253.624 93.5507L253.674 93.8059C253.731 94.0931 254.009 94.2803 254.297 94.2239L265.778 91.9714C266.065 91.915 266.252 91.6365 266.196 91.3493L266.146 91.0941C266.089 90.8069 265.811 90.6197 265.524 90.6761Z" fill="white"/>
<path d="M349.707 97.3202C352.738 99.6295 355.421 101.206 355.699 100.841C355.977 100.477 353.744 98.309 350.713 95.9998C347.682 93.6905 344.999 92.114 344.721 92.4787C344.443 92.8433 346.676 95.011 349.707 97.3202Z" fill="white"/>
<path d="M322.671 94.4118L321.652 93.998C321.514 93.9419 321.356 94.0084 321.3 94.1466L318.381 101.336C318.324 101.475 318.391 101.632 318.529 101.688L319.548 102.102C319.686 102.158 319.844 102.092 319.9 101.953L322.82 94.7636C322.876 94.6254 322.809 94.4679 322.671 94.4118Z" fill="white"/>
<path d="M255.34 97.81L261.9 99.44C262.127 99.4933 262.243 99.64 262.25 99.88L262.26 100.21C262.267 100.45 262.15 100.553 261.91 100.52C259.643 100.193 257.323 99.6233 254.95 98.81C254.707 98.7256 254.496 98.5669 254.349 98.3567C254.201 98.1465 254.125 97.8956 254.13 97.64C254.137 97.22 254.063 96.8233 253.91 96.45C253.853 96.305 253.758 96.1783 253.635 96.0832C253.511 95.9881 253.365 95.9282 253.21 95.91C252.71 95.8567 252.193 95.8333 251.66 95.84C251.4 95.84 251.167 95.7733 250.96 95.64C250.78 95.52 250.663 95.3533 250.61 95.14C250.586 95.04 250.591 94.9354 250.623 94.8379C250.656 94.7404 250.715 94.6539 250.794 94.5884C250.873 94.5228 250.969 94.4807 251.071 94.4668C251.173 94.453 251.276 94.4679 251.37 94.51C252.217 94.87 253.103 95.0633 254.03 95.09C254.49 95.1033 254.71 95.34 254.69 95.8L254.64 96.87C254.62 97.3767 254.853 97.69 255.34 97.81Z" fill="white"/>
<path d="M337.338 95.8265L337.301 95.8437C336.923 96.0244 336.762 96.478 336.943 96.8568L340.929 105.215C341.11 105.594 341.564 105.754 341.942 105.574L341.978 105.556C342.357 105.376 342.518 104.922 342.337 104.543L338.351 96.1852C338.17 95.8064 337.716 95.6458 337.338 95.8265Z" fill="white"/>
<path d="M251.2 99.0067C251.933 99.3562 252.652 99.3769 252.807 99.0529C252.961 98.7288 252.493 98.1828 251.76 97.8333C251.027 97.4838 250.308 97.4631 250.153 97.7872C249.999 98.1112 250.467 98.6572 251.2 99.0067Z" fill="white"/>
<path d="M239.47 97.82C239.469 97.7955 239.472 97.7711 239.481 97.748C239.489 97.725 239.502 97.704 239.519 97.6862C239.536 97.6684 239.556 97.6543 239.579 97.6446C239.601 97.6349 239.625 97.63 239.65 97.63H239.72C240.045 97.6243 240.362 97.8231 240.6 98.1829C240.838 98.5428 240.978 99.0343 240.99 99.55L241.05 102.15C241.056 102.407 241.03 102.662 240.973 102.901C240.917 103.139 240.831 103.357 240.72 103.541C240.61 103.725 240.477 103.872 240.329 103.973C240.181 104.074 240.022 104.127 239.86 104.13H239.79C239.744 104.13 239.7 104.112 239.666 104.081C239.633 104.049 239.613 104.006 239.61 103.96L239.47 97.82Z" fill="white"/>
<path d="M224.763 102.663C222.722 105.514 221.365 108.04 221.734 108.303C222.102 108.567 224.055 106.469 226.097 103.617C228.138 100.766 229.495 98.2404 229.126 97.9768C228.758 97.7132 226.805 99.8111 224.763 102.663Z" fill="white"/>
<path d="M230.769 101.665C231.33 101.281 231.632 100.749 231.445 100.475C231.258 100.202 230.652 100.291 230.091 100.675C229.531 101.059 229.228 101.591 229.415 101.865C229.602 102.138 230.209 102.049 230.769 101.665Z" fill="white"/>
<path d="M258.455 103.924L251.844 100.512C251.555 100.362 251.199 100.476 251.049 100.765L251.031 100.801C250.881 101.091 250.995 101.446 251.285 101.596L257.896 105.008C258.185 105.158 258.541 105.044 258.691 104.755L258.709 104.719C258.859 104.429 258.745 104.074 258.455 103.924Z" fill="white"/>
<path d="M234.17 102.31C234.176 102.285 234.187 102.261 234.202 102.24C234.217 102.219 234.237 102.201 234.26 102.188C234.282 102.175 234.307 102.166 234.333 102.163C234.359 102.16 234.385 102.162 234.41 102.17L234.45 102.19C234.62 102.234 234.768 102.358 234.884 102.556C235.001 102.754 235.083 103.021 235.128 103.342C235.173 103.663 235.178 104.033 235.144 104.429C235.11 104.825 235.037 105.24 234.93 105.65L234.62 106.85C234.512 107.261 234.371 107.659 234.206 108.021C234.041 108.384 233.855 108.703 233.658 108.961C233.461 109.22 233.257 109.412 233.059 109.526C232.86 109.641 232.67 109.676 232.5 109.63L232.45 109.62C232.403 109.606 232.363 109.574 232.338 109.531C232.314 109.488 232.308 109.438 232.32 109.39L234.17 102.31Z" fill="white"/>
<path d="M237.97 111.05C236.777 108.557 236.427 106.12 236.92 103.74C236.937 103.662 236.983 103.593 237.049 103.547C237.116 103.5 237.198 103.48 237.28 103.49L237.6 103.53C237.98 103.577 238.157 103.79 238.13 104.17C237.983 106.597 238.39 108.98 239.35 111.32C239.47 111.627 239.37 111.753 239.05 111.7L238.79 111.66C238.615 111.636 238.449 111.567 238.306 111.461C238.163 111.354 238.047 111.213 237.97 111.05Z" fill="white"/>
<path d="M228.58 112.49C228.568 112.526 228.543 112.557 228.51 112.576C228.476 112.594 228.437 112.599 228.4 112.59L228.29 112.56C227.909 112.449 227.648 111.98 227.566 111.256C227.483 110.533 227.585 109.613 227.85 108.7L228.12 107.77C228.385 106.856 228.791 106.024 229.249 105.456C229.706 104.888 230.178 104.63 230.56 104.74L230.67 104.78C230.707 104.792 230.737 104.817 230.756 104.85C230.774 104.884 230.779 104.923 230.77 104.96L228.58 112.49Z" fill="white"/>
<path d="M353.594 130.667C354.953 129.661 355.873 128.602 355.65 128.3C355.426 127.998 354.144 128.568 352.785 129.573C351.427 130.579 350.507 131.638 350.73 131.94C350.954 132.242 352.236 131.672 353.594 130.667Z" fill="white"/>
<path d="M328.79 137.05C328.811 137.078 328.821 137.114 328.817 137.149C328.814 137.184 328.797 137.217 328.77 137.24L328.73 137.27C328.552 137.404 328.337 137.485 328.097 137.508C327.857 137.53 327.597 137.495 327.333 137.403C327.068 137.311 326.803 137.164 326.554 136.971C326.304 136.779 326.075 136.544 325.88 136.28L325.35 135.56C325.155 135.297 324.996 135.011 324.884 134.718C324.771 134.424 324.707 134.129 324.695 133.85C324.683 133.57 324.723 133.311 324.813 133.088C324.903 132.865 325.042 132.682 325.22 132.55L325.26 132.52C325.275 132.508 325.292 132.5 325.31 132.495C325.329 132.491 325.348 132.49 325.366 132.492C325.385 132.495 325.403 132.502 325.419 132.512C325.435 132.521 325.449 132.535 325.46 132.55L328.79 137.05Z" fill="white"/>
<path d="M316.385 135.467C317.032 136.579 317.854 137.308 318.222 137.094C318.59 136.88 318.363 135.805 317.715 134.693C317.068 133.58 316.246 132.852 315.878 133.066C315.51 133.28 315.737 134.355 316.385 135.467Z" fill="white"/>
<path d="M373.88 156.936L369.136 156.083C368.87 156.035 368.615 156.212 368.567 156.478L368.525 156.715C368.477 156.981 368.654 157.236 368.92 157.284L373.664 158.137C373.93 158.185 374.185 158.008 374.233 157.742L374.275 157.505C374.323 157.239 374.146 156.984 373.88 156.936Z" fill="white"/>
<path d="M308.499 159.987L304.759 159.993C304.428 159.994 304.159 160.263 304.16 160.594L304.16 160.674C304.161 161.006 304.43 161.274 304.761 161.273L308.501 161.267C308.833 161.266 309.101 160.997 309.1 160.666L309.1 160.586C309.099 160.254 308.83 159.986 308.499 159.987Z" fill="white"/>
<path d="M367.465 169.034C368.669 169.194 369.688 169.005 369.741 168.611C369.793 168.217 368.86 167.767 367.655 167.606C366.451 167.446 365.432 167.635 365.379 168.029C365.327 168.423 366.26 168.873 367.465 169.034Z" fill="white"/>
<path d="M304.39 169.745C305.815 169.366 306.885 168.738 306.78 168.343C306.675 167.948 305.435 167.936 304.01 168.315C302.585 168.694 301.515 169.322 301.62 169.717C301.725 170.111 302.965 170.124 304.39 169.745Z" fill="white"/>
<path d="M310.564 185.805C309.752 186.969 309.347 188.09 309.66 188.308C309.972 188.526 310.884 187.759 311.696 186.595C312.508 185.431 312.913 184.31 312.6 184.092C312.288 183.874 311.376 184.641 310.564 185.805Z" fill="white"/>
<path d="M345.448 194.934C346.254 196.008 347.19 196.665 347.539 196.403C347.888 196.141 347.518 195.059 346.712 193.986C345.906 192.912 344.97 192.255 344.621 192.517C344.272 192.779 344.642 193.861 345.448 194.934Z" fill="white"/>
<path d="M359.004 196.892C360.257 198.603 361.579 199.766 361.958 199.489C362.337 199.211 361.628 197.599 360.376 195.888C359.123 194.177 357.801 193.014 357.422 193.291C357.043 193.569 357.752 195.181 359.004 196.892Z" fill="white"/>
<path d="M328.372 194.409L328.333 194.398C327.956 194.292 327.564 194.512 327.458 194.889L326.197 199.376C326.091 199.753 326.311 200.145 326.688 200.251L326.727 200.262C327.104 200.368 327.496 200.148 327.602 199.771L328.863 195.284C328.969 194.907 328.749 194.515 328.372 194.409Z" fill="white"/>
</g>
<defs>
<clipPath id="clip0_854_2">
<rect width="403" height="371" fill="white"/>
</clipPath>
</defs>
</svg>
